solid CATIA STL
  facet normal -8.730870e-001  4.875593e-001 -2.244435e-003
    outer loop
      vertex  7.690115e+000 -4.771229e+000  2.500000e+000
      vertex  7.400923e+000 -5.208535e+000  2.000000e+001
      vertex  8.316675e+000 -3.568670e+000  2.000000e+001
    endloop
  endfacet
  facet normal -9.357873e-001  3.524427e-001  9.285338e-003
    outer loop
      vertex  8.926965e+000 -1.487213e+000  2.500000e+000
      vertex  7.690115e+000 -4.771229e+000  2.500000e+000
      vertex  8.316675e+000 -3.568670e+000  2.000000e+001
    endloop
  endfacet
  facet normal -9.750227e-001  2.219754e-001 -7.600782e-003
    outer loop
      vertex  8.926965e+000 -1.487213e+000  2.500000e+000
      vertex  8.316675e+000 -3.568670e+000  2.000000e+001
      vertex  9.041883e+000 -3.832076e-001  2.000000e+001
    endloop
  endfacet
  facet normal -9.946260e-001  1.035331e-001  0.000000e+000
    outer loop
      vertex  8.926965e+000 -1.487213e+000  2.500000e+000
      vertex  9.041883e+000 -3.832076e-001  2.000000e+001
      vertex  8.926965e+000 -1.487213e+000 -2.220446e-015
    endloop
  endfacet
  facet normal -2.171165e-001  9.761457e-001  0.000000e+000
    outer loop
      vertex  2.107463e+000 -8.801199e+000  2.500000e+000
      vertex  2.107463e+000 -8.801199e+000  0.000000e+000
      vertex  1.821861e+000 -8.864723e+000  2.000000e+001
    endloop
  endfacet
  facet normal -2.903953e-001  9.569060e-001 -1.265759e-003
    outer loop
      vertex  2.107463e+000 -8.801199e+000  2.500000e+000
      vertex  1.821861e+000 -8.864723e+000  2.000000e+001
      vertex  3.412101e+000 -8.382128e+000  2.000000e+001
    endloop
  endfacet
  facet normal -4.169810e-001  9.088674e-001  9.321680e-003
    outer loop
      vertex  2.107463e+000 -8.801199e+000  2.500000e+000
      vertex  3.412101e+000 -8.382128e+000  2.000000e+001
      vertex  5.297009e+000 -7.337861e+000  2.500000e+000
    endloop
  endfacet
  facet normal -9.997654e-001  2.117604e-002  4.575665e-003
    outer loop
      vertex  9.041883e+000 -3.832076e-001  2.000000e+001
      vertex  9.050000e+000 -8.881784e-016  2.000000e+001
      vertex  8.926965e+000 -1.487213e+000 -2.220446e-015
    endloop
  endfacet
  facet normal -9.965954e-001  8.244722e-002  0.000000e+000
    outer loop
      vertex  8.926965e+000 -1.487213e+000 -2.220446e-015
      vertex  9.050000e+000 -8.881784e-016  2.000000e+001
      vertex  9.050000e+000 -1.025455e-014  0.000000e+000
    endloop
  endfacet
  facet normal -5.380142e-001  8.429011e-001 -7.651048e-003
    outer loop
      vertex  3.412101e+000 -8.382128e+000  2.000000e+001
      vertex  6.166256e+000 -6.624182e+000  2.000000e+001
      vertex  5.297009e+000 -7.337861e+000  2.500000e+000
    endloop
  endfacet
  facet normal -7.535949e-001  6.572533e-001  1.062816e-002
    outer loop
      vertex  5.297009e+000 -7.337861e+000  2.500000e+000
      vertex  6.166256e+000 -6.624182e+000  2.000000e+001
      vertex  7.400923e+000 -5.208535e+000  2.000000e+001
    endloop
  endfacet
  facet normal -7.313896e-001  6.819419e-001  4.954555e-003
    outer loop
      vertex  5.297009e+000 -7.337861e+000  2.500000e+000
      vertex  7.400923e+000 -5.208535e+000  2.000000e+001
      vertex  7.690115e+000 -4.771229e+000  2.500000e+000
    endloop
  endfacet
  facet normal  8.643551e-002  9.962557e-001 -1.832139e-003
    outer loop
      vertex -1.663789e+000 -8.895746e+000  2.000000e+001
      vertex  1.068655e-001 -9.049369e+000  2.000000e+001
      vertex -1.138524e+000 -8.978099e+000  0.000000e+000
    endloop
  endfacet
  facet normal -1.070412e-001  9.942022e-001  1.020824e-002
    outer loop
      vertex -1.138524e+000 -8.978099e+000  0.000000e+000
      vertex  1.068655e-001 -9.049369e+000  2.000000e+001
      vertex  1.821861e+000 -8.864723e+000  2.000000e+001
    endloop
  endfacet
  facet normal -5.441713e-002  9.985154e-001  2.394415e-003
    outer loop
      vertex -1.138524e+000 -8.978099e+000  0.000000e+000
      vertex  1.821861e+000 -8.864723e+000  2.000000e+001
      vertex  2.107463e+000 -8.801199e+000  0.000000e+000
    endloop
  endfacet
  facet normal  4.589100e-001  8.884805e-001 -2.027396e-003
    outer loop
      vertex -4.899290e+000 -7.609169e+000  2.000000e+001
      vertex -3.369322e+000 -8.399415e+000  2.000000e+001
      vertex -4.237610e+000 -7.996572e+000  0.000000e+000
    endloop
  endfacet
  facet normal  2.794137e-001  9.601437e-001  7.208779e-003
    outer loop
      vertex -4.237610e+000 -7.996572e+000  0.000000e+000
      vertex -3.369322e+000 -8.399415e+000  2.000000e+001
      vertex -1.663789e+000 -8.895746e+000  2.000000e+001
    endloop
  endfacet
  facet normal  3.019312e-001  9.533214e-001  4.004262e-003
    outer loop
      vertex -4.237610e+000 -7.996572e+000  0.000000e+000
      vertex -1.663789e+000 -8.895746e+000  2.000000e+001
      vertex -1.138524e+000 -8.978099e+000  0.000000e+000
    endloop
  endfacet
  facet normal  7.557865e-001  6.548142e-001 -2.308086e-003
    outer loop
      vertex -7.404597e+000 -5.203310e+000  2.000000e+001
      vertex -6.204915e+000 -6.587984e+000  2.000000e+001
      vertex -6.789924e+000 -5.983262e+000  0.000000e+000
    endloop
  endfacet
  facet normal  6.160706e-001  7.876696e-001  5.795695e-003
    outer loop
      vertex -6.789924e+000 -5.983262e+000  0.000000e+000
      vertex -6.204915e+000 -6.587984e+000  2.000000e+001
      vertex -4.899290e+000 -7.609169e+000  2.000000e+001
    endloop
  endfacet
  facet normal  6.193181e-001  7.851223e-001  5.281610e-003
    outer loop
      vertex -6.789924e+000 -5.983262e+000  0.000000e+000
      vertex -4.899290e+000 -7.609169e+000  2.000000e+001
      vertex -4.237610e+000 -7.996572e+000  0.000000e+000
    endloop
  endfacet
  facet normal  9.948363e-001  1.014927e-001  0.000000e+000
    outer loop
      vertex -9.050000e+000 -2.910739e-015  2.000000e+001
      vertex -8.863557e+000 -1.827527e+000  2.000000e+001
      vertex -9.050000e+000 -2.910739e-015  0.000000e+000
    endloop
  endfacet
  facet normal  9.534746e-001  3.008987e-001  1.860658e-002
    outer loop
      vertex -9.050000e+000 -2.910739e-015  0.000000e+000
      vertex -8.863557e+000 -1.827527e+000  2.000000e+001
      vertex -8.306981e+000 -3.591180e+000  2.000000e+001
    endloop
  endfacet
  facet normal  9.837301e-001  1.796009e-001 -4.297557e-003
    outer loop
      vertex -9.050000e+000 -2.910739e-015  0.000000e+000
      vertex -8.306981e+000 -3.591180e+000  2.000000e+001
      vertex -8.466147e+000 -3.197943e+000  0.000000e+000
    endloop
  endfacet
  facet normal  8.725975e-001  4.884329e-001  2.659067e-003
    outer loop
      vertex -8.466147e+000 -3.197943e+000  0.000000e+000
      vertex -8.306981e+000 -3.591180e+000  2.000000e+001
      vertex -7.404597e+000 -5.203310e+000  2.000000e+001
    endloop
  endfacet
  facet normal  8.567926e-001  5.156235e-001  6.224303e-003
    outer loop
      vertex -8.466147e+000 -3.197943e+000  0.000000e+000
      vertex -7.404597e+000 -5.203310e+000  2.000000e+001
      vertex -6.789924e+000 -5.983262e+000  0.000000e+000
    endloop
  endfacet
  facet normal  0.000000e+000  0.000000e+000 -1.000000e+000
    outer loop
      vertex  3.797495e+000 -1.037697e+001  0.000000e+000
      vertex -1.138524e+000 -8.978099e+000  0.000000e+000
      vertex  2.107463e+000 -8.801199e+000  0.000000e+000
    endloop
  endfacet
  facet normal  0.000000e+000  0.000000e+000 -1.000000e+000
    outer loop
      vertex -1.138524e+000 -8.978099e+000  0.000000e+000
      vertex -6.330094e+000 -9.057175e+000  0.000000e+000
      vertex -4.237610e+000 -7.996572e+000  0.000000e+000
    endloop
  endfacet
  facet normal  -0.000000e+000  0.000000e+000 -1.000000e+000
    outer loop
      vertex -4.237610e+000 -7.996572e+000  0.000000e+000
      vertex -6.330094e+000 -9.057175e+000  0.000000e+000
      vertex -8.859610e+000 -6.603774e+000  0.000000e+000
    endloop
  endfacet
  facet normal  0.000000e+000  0.000000e+000 -9.999999e-001
    outer loop
      vertex -4.237610e+000 -7.996572e+000  0.000000e+000
      vertex -8.859610e+000 -6.603774e+000  0.000000e+000
      vertex -6.789924e+000 -5.983262e+000  0.000000e+000
    endloop
  endfacet
  facet normal  -0.000000e+000  0.000000e+000 -1.000000e+000
    outer loop
      vertex -6.789924e+000 -5.983262e+000  0.000000e+000
      vertex -8.859610e+000 -6.603774e+000  0.000000e+000
      vertex -1.048812e+001 -3.478780e+000  0.000000e+000
    endloop
  endfacet
  facet normal  0.000000e+000  0.000000e+000 -9.999999e-001
    outer loop
      vertex -6.789924e+000 -5.983262e+000  0.000000e+000
      vertex -1.048812e+001 -3.478780e+000  0.000000e+000
      vertex -8.466147e+000 -3.197943e+000  0.000000e+000
    endloop
  endfacet
  facet normal  -0.000000e+000  0.000000e+000 -1.000000e+000
    outer loop
      vertex -8.466147e+000 -3.197943e+000  0.000000e+000
      vertex -1.048812e+001 -3.478780e+000  0.000000e+000
      vertex -1.105000e+001  1.353190e-015  0.000000e+000
    endloop
  endfacet
  facet normal  0.000000e+000  0.000000e+000 -1.000000e+000
    outer loop
      vertex -8.466147e+000 -3.197943e+000  0.000000e+000
      vertex -1.105000e+001  1.353190e-015  0.000000e+000
      vertex -9.050000e+000 -2.910739e-015  0.000000e+000
    endloop
  endfacet
  facet normal  0.000000e+000  0.000000e+000 -1.000000e+000
    outer loop
      vertex  3.374995e-001 -1.104484e+001  0.000000e+000
      vertex -3.156819e+000 -1.058948e+001  0.000000e+000
      vertex  3.797495e+000 -1.037697e+001  0.000000e+000
    endloop
  endfacet
  facet normal  -0.000000e+000  0.000000e+000 -1.000000e+000
    outer loop
      vertex  3.797495e+000 -1.037697e+001  0.000000e+000
      vertex -3.156819e+000 -1.058948e+001  0.000000e+000
      vertex -6.330094e+000 -9.057175e+000  0.000000e+000
    endloop
  endfacet
  facet normal  0.000000e+000  0.000000e+000 -1.000000e+000
    outer loop
      vertex  3.797495e+000 -1.037697e+001  0.000000e+000
      vertex -6.330094e+000 -9.057175e+000  0.000000e+000
      vertex -1.138524e+000 -8.978099e+000  0.000000e+000
    endloop
  endfacet
  facet normal  1.292395e-015  1.386107e-015 -1.000000e+000
    outer loop
      vertex  8.926965e+000 -1.487213e+000 -2.220446e-015
      vertex  9.050000e+000 -1.025455e-014  0.000000e+000
      vertex  1.061700e+001 -3.062985e+000 -2.220446e-015
    endloop
  endfacet
  facet normal  0.000000e+000  7.249288e-016 -1.000000e+000
    outer loop
      vertex  1.061700e+001 -3.062985e+000 -2.220446e-015
      vertex  9.050000e+000 -1.025455e-014  0.000000e+000
      vertex  1.105000e+001  0.000000e+000  0.000000e+000
    endloop
  endfacet
  facet normal -8.867888e-001 -4.621262e-001 -6.712592e-003
    outer loop
      vertex -8.859610e+000 -6.603774e+000  0.000000e+000
      vertex -9.604067e+000 -5.465720e+000  2.000000e+001
      vertex -1.048812e+001 -3.478780e+000  0.000000e+000
    endloop
  endfacet
  facet normal  9.901550e-001 -1.399747e-001 -5.594514e-017
    outer loop
      vertex  1.105000e+001  0.000000e+000  0.000000e+000
      vertex  1.105000e+001 -7.993606e-015  2.000000e+001
      vertex  1.061700e+001 -3.062985e+000 -2.220446e-015
    endloop
  endfacet
  facet normal  9.949424e-001 -1.002570e-001 -6.186384e-003
    outer loop
      vertex  1.061700e+001 -3.062985e+000 -2.220446e-015
      vertex  1.105000e+001 -7.993606e-015  2.000000e+001
      vertex  1.082785e+001 -2.204578e+000  2.000000e+001
    endloop
  endfacet
  facet normal  9.711315e-001 -2.385445e-001  0.000000e+000
    outer loop
      vertex  1.061700e+001 -3.062985e+000 -2.220446e-015
      vertex  1.082785e+001 -2.204578e+000  2.000000e+001
      vertex  1.061700e+001 -3.062985e+000  2.500000e+000
    endloop
  endfacet
  facet normal  9.217082e-001 -3.878030e-001  7.916904e-003
    outer loop
      vertex  1.061700e+001 -3.062985e+000  2.500000e+000
      vertex  1.082785e+001 -2.204578e+000  2.000000e+001
      vertex  9.613202e+000 -5.448747e+000  2.500000e+000
    endloop
  endfacet
  facet normal  9.526301e-001 -3.039744e-001 -9.769581e-003
    outer loop
      vertex  9.613202e+000 -5.448747e+000  2.500000e+000
      vertex  1.082785e+001 -2.204578e+000  2.000000e+001
      vertex  1.010356e+001 -4.474438e+000  2.000000e+001
    endloop
  endfacet
  facet normal  8.061913e-001 -5.915645e-001  1.034525e-002
    outer loop
      vertex  9.613202e+000 -5.448747e+000  2.500000e+000
      vertex  1.010356e+001 -4.474438e+000  2.000000e+001
      vertex  8.081955e+000 -7.535550e+000  2.500000e+000
    endloop
  endfacet
  facet normal  8.653021e-001 -5.010995e-001 -1.230745e-002
    outer loop
      vertex  8.081955e+000 -7.535550e+000  2.500000e+000
      vertex  1.010356e+001 -4.474438e+000  2.000000e+001
      vertex  8.909611e+000 -6.536163e+000  2.000000e+001
    endloop
  endfacet
  facet normal  7.322854e-001 -6.809846e-001  4.256367e-003
    outer loop
      vertex  8.081955e+000 -7.535550e+000  2.500000e+000
      vertex  8.909611e+000 -6.536163e+000  2.000000e+001
      vertex  7.164949e+000 -8.412256e+000  2.000000e+001
    endloop
  endfacet
  facet normal  6.464896e-001 -7.629104e-001 -4.343642e-003
    outer loop
      vertex  8.081955e+000 -7.535550e+000  2.500000e+000
      vertex  7.164949e+000 -8.412256e+000  2.000000e+001
      vertex  6.107270e+000 -9.208896e+000  2.500000e+000
    endloop
  endfacet
  facet normal  5.557750e-001 -8.313218e-001  4.253279e-003
    outer loop
      vertex  6.107270e+000 -9.208896e+000  2.500000e+000
      vertex  7.164949e+000 -8.412256e+000  2.000000e+001
      vertex  5.034962e+000 -9.836246e+000  2.000000e+001
    endloop
  endfacet
  facet normal  4.512808e-001 -8.923714e-001 -4.338117e-003
    outer loop
      vertex  6.107270e+000 -9.208896e+000  2.500000e+000
      vertex  5.034962e+000 -9.836246e+000  2.000000e+001
      vertex  3.797495e+000 -1.037697e+001  2.500000e+000
    endloop
  endfacet
  facet normal  3.495434e-001 -9.369106e-001  4.232176e-003
    outer loop
      vertex  3.797495e+000 -1.037697e+001  2.500000e+000
      vertex  5.034962e+000 -9.836246e+000  2.000000e+001
      vertex  2.636339e+000 -1.073113e+001  2.000000e+001
    endloop
  endfacet
  facet normal  2.917341e-001 -9.564994e-001  0.000000e+000
    outer loop
      vertex  3.797495e+000 -1.037697e+001  2.500000e+000
      vertex  2.636339e+000 -1.073113e+001  2.000000e+001
      vertex  3.797495e+000 -1.037697e+001  0.000000e+000
    endloop
  endfacet
  facet normal  1.895248e-001 -9.818552e-001 -6.383038e-003
    outer loop
      vertex  3.797495e+000 -1.037697e+001  0.000000e+000
      vertex  2.636339e+000 -1.073113e+001  2.000000e+001
      vertex  3.374995e-001 -1.104484e+001  0.000000e+000
    endloop
  endfacet
  facet normal  1.246644e-001 -9.921981e-001  1.234386e-003
    outer loop
      vertex  3.374995e-001 -1.104484e+001  0.000000e+000
      vertex  2.636339e+000 -1.073113e+001  2.000000e+001
      vertex  9.843313e-002 -1.105000e+001  2.000000e+001
    endloop
  endfacet
  facet normal -1.292241e-001 -9.916137e-001 -1.800273e-003
    outer loop
      vertex  3.374995e-001 -1.104484e+001  0.000000e+000
      vertex  9.843313e-002 -1.105000e+001  2.000000e+001
      vertex -3.156819e+000 -1.058948e+001  0.000000e+000
    endloop
  endfacet
  facet normal  0.000000e+000 -9.997351e-001 -2.302013e-002
    outer loop
      vertex -3.156819e+000 -1.058948e+001  0.000000e+000
      vertex  9.843313e-002 -1.105000e+001  2.000000e+001
      vertex -9.852695e-002 -1.105000e+001  2.000000e+001
    endloop
  endfacet
  facet normal -1.664673e-001 -9.860432e-001  2.750422e-003
    outer loop
      vertex -3.156819e+000 -1.058948e+001  0.000000e+000
      vertex -9.852695e-002 -1.105000e+001  2.000000e+001
      vertex -3.532655e+000 -1.047024e+001  2.000000e+001
    endloop
  endfacet
  facet normal -4.348336e-001 -9.005064e-001 -2.802618e-003
    outer loop
      vertex -3.156819e+000 -1.058948e+001  0.000000e+000
      vertex -3.532655e+000 -1.047024e+001  2.000000e+001
      vertex -6.330094e+000 -9.057175e+000  0.000000e+000
    endloop
  endfacet
  facet normal -4.337727e-001 -9.010174e-001 -2.987128e-003
    outer loop
      vertex -6.330094e+000 -9.057175e+000  0.000000e+000
      vertex -3.532655e+000 -1.047024e+001  2.000000e+001
      vertex -5.980204e+000 -9.291926e+000  2.000000e+001
    endloop
  endfacet
  facet normal -6.962195e-001 -7.178192e-001  3.754557e-003
    outer loop
      vertex -6.330094e+000 -9.057175e+000  0.000000e+000
      vertex -5.980204e+000 -9.291926e+000  2.000000e+001
      vertex -8.859610e+000 -6.603774e+000  0.000000e+000
    endloop
  endfacet
  facet normal -6.381303e-001 -7.698410e-001 -1.160069e-002
    outer loop
      vertex -8.859610e+000 -6.603774e+000  0.000000e+000
      vertex -5.980204e+000 -9.291926e+000  2.000000e+001
      vertex -8.023134e+000 -7.598517e+000  2.000000e+001
    endloop
  endfacet
  facet normal -8.033557e-001 -5.954862e-001  3.981568e-003
    outer loop
      vertex -8.859610e+000 -6.603774e+000  0.000000e+000
      vertex -8.023134e+000 -7.598517e+000  2.000000e+001
      vertex -9.604067e+000 -5.465720e+000  2.000000e+001
    endloop
  endfacet
  facet normal -9.916462e-001 -1.289870e-001 -9.464978e-017
    outer loop
      vertex -1.105000e+001 -1.332268e-014  2.000000e+001
      vertex -1.105000e+001  1.353190e-015  0.000000e+000
      vertex -1.068212e+001 -2.828222e+000  2.000000e+001
    endloop
  endfacet
  facet normal -9.871964e-001 -1.594495e-001 -4.389592e-003
    outer loop
      vertex -1.068212e+001 -2.828222e+000  2.000000e+001
      vertex -1.105000e+001  1.353190e-015  0.000000e+000
      vertex -1.048812e+001 -3.478780e+000  0.000000e+000
    endloop
  endfacet
  facet normal -9.256549e-001 -3.783542e-001  3.327885e-003
    outer loop
      vertex -1.068212e+001 -2.828222e+000  2.000000e+001
      vertex -1.048812e+001 -3.478780e+000  0.000000e+000
      vertex -9.604067e+000 -5.465720e+000  2.000000e+001
    endloop
  endfacet
  facet normal -6.819502e-001 -7.313986e-001  0.000000e+000
    outer loop
      vertex  1.061700e+001 -3.062985e+000  2.500000e+000
      vertex  8.926965e+000 -1.487213e+000  2.500000e+000
      vertex  1.061700e+001 -3.062985e+000 -2.220446e-015
    endloop
  endfacet
  facet normal -6.819502e-001 -7.313986e-001  0.000000e+000
    outer loop
      vertex  1.061700e+001 -3.062985e+000 -2.220446e-015
      vertex  8.926965e+000 -1.487213e+000  2.500000e+000
      vertex  8.926965e+000 -1.487213e+000 -2.220446e-015
    endloop
  endfacet
  facet normal  6.819502e-001  7.313987e-001  0.000000e+000
    outer loop
      vertex  3.797495e+000 -1.037697e+001  0.000000e+000
      vertex  2.107463e+000 -8.801199e+000  0.000000e+000
      vertex  3.797495e+000 -1.037697e+001  2.500000e+000
    endloop
  endfacet
  facet normal  6.819502e-001  7.313987e-001  0.000000e+000
    outer loop
      vertex  3.797495e+000 -1.037697e+001  2.500000e+000
      vertex  2.107463e+000 -8.801199e+000  0.000000e+000
      vertex  2.107463e+000 -8.801199e+000  2.500000e+000
    endloop
  endfacet
  facet normal  0.000000e+000  0.000000e+000 -1.000000e+000
    outer loop
      vertex  2.107463e+000 -8.801199e+000  2.500000e+000
      vertex  5.297009e+000 -7.337861e+000  2.500000e+000
      vertex  3.797495e+000 -1.037697e+001  2.500000e+000
    endloop
  endfacet
  facet normal  0.000000e+000  0.000000e+000 -1.000000e+000
    outer loop
      vertex  1.061700e+001 -3.062985e+000  2.500000e+000
      vertex  7.690115e+000 -4.771229e+000  2.500000e+000
      vertex  8.926965e+000 -1.487213e+000  2.500000e+000
    endloop
  endfacet
  facet normal  0.000000e+000  0.000000e+000 -1.000000e+000
    outer loop
      vertex  5.297009e+000 -7.337861e+000  2.500000e+000
      vertex  7.690115e+000 -4.771229e+000  2.500000e+000
      vertex  3.797495e+000 -1.037697e+001  2.500000e+000
    endloop
  endfacet
  facet normal  0.000000e+000  0.000000e+000 -1.000000e+000
    outer loop
      vertex  3.797495e+000 -1.037697e+001  2.500000e+000
      vertex  7.690115e+000 -4.771229e+000  2.500000e+000
      vertex  1.061700e+001 -3.062985e+000  2.500000e+000
    endloop
  endfacet
  facet normal  0.000000e+000  0.000000e+000 -1.000000e+000
    outer loop
      vertex  3.797495e+000 -1.037697e+001  2.500000e+000
      vertex  1.061700e+001 -3.062985e+000  2.500000e+000
      vertex  6.107270e+000 -9.208896e+000  2.500000e+000
    endloop
  endfacet
  facet normal  0.000000e+000  0.000000e+000 -1.000000e+000
    outer loop
      vertex  6.107270e+000 -9.208896e+000  2.500000e+000
      vertex  1.061700e+001 -3.062985e+000  2.500000e+000
      vertex  9.613202e+000 -5.448747e+000  2.500000e+000
    endloop
  endfacet
  facet normal  0.000000e+000  0.000000e+000 -1.000000e+000
    outer loop
      vertex  6.107270e+000 -9.208896e+000  2.500000e+000
      vertex  9.613202e+000 -5.448747e+000  2.500000e+000
      vertex  8.081955e+000 -7.535550e+000  2.500000e+000
    endloop
  endfacet
  facet normal  0.000000e+000  0.000000e+000 -1.000000e+000
    outer loop
      vertex  2.683282e+000  5.366563e+000  2.000000e+001
      vertex  2.330482e+000  8.744790e+000  2.000000e+001
      vertex  4.047283e+000  8.094566e+000  2.000000e+001
    endloop
  endfacet
  facet normal  0.000000e+000  0.000000e+000 -1.000000e+000
    outer loop
      vertex  2.683282e+000  5.366563e+000  2.000000e+001
      vertex  3.345975e-001  5.990832e+000  2.000000e+001
      vertex  2.330482e+000  8.744790e+000  2.000000e+001
    endloop
  endfacet
  facet normal  0.000000e+000  0.000000e+000 -1.000000e+000
    outer loop
      vertex -6.000000e+000 -1.776357e-015  2.000000e+001
      vertex -8.790145e+000  2.153104e+000  2.000000e+001
      vertex -5.507999e+000  2.379908e+000  2.000000e+001
    endloop
  endfacet
  facet normal  0.000000e+000  0.000000e+000 -1.000000e+000
    outer loop
      vertex -6.000000e+000 -1.776357e-015  2.000000e+001
      vertex -9.050000e+000 -2.910739e-015  2.000000e+001
      vertex -8.790145e+000  2.153104e+000  2.000000e+001
    endloop
  endfacet
  facet normal  0.000000e+000  -0.000000e+000 -1.000000e+000
    outer loop
      vertex -8.790145e+000  2.153104e+000  2.000000e+001
      vertex -7.652679e+000  4.831045e+000  2.000000e+001
      vertex -5.507999e+000  2.379908e+000  2.000000e+001
    endloop
  endfacet
  facet normal  0.000000e+000  0.000000e+000 -1.000000e+000
    outer loop
      vertex -4.118345e+000  4.363487e+000  2.000000e+001
      vertex -5.507999e+000  2.379908e+000  2.000000e+001
      vertex -7.652679e+000  4.831045e+000  2.000000e+001
    endloop
  endfacet
  facet normal  0.000000e+000  -0.000000e+000 -1.000000e+000
    outer loop
      vertex -7.652679e+000  4.831045e+000  2.000000e+001
      vertex -5.649032e+000  7.070427e+000  2.000000e+001
      vertex -4.118345e+000  4.363487e+000  2.000000e+001
    endloop
  endfacet
  facet normal  0.000000e+000  0.000000e+000 -1.000000e+000
    outer loop
      vertex -2.061041e+000  5.634971e+000  2.000000e+001
      vertex -4.118345e+000  4.363487e+000  2.000000e+001
      vertex -5.649032e+000  7.070427e+000  2.000000e+001
    endloop
  endfacet
  facet normal  0.000000e+000  0.000000e+000 -1.000000e+000
    outer loop
      vertex -2.061041e+000  5.634971e+000  2.000000e+001
      vertex -5.649032e+000  7.070427e+000  2.000000e+001
      vertex -3.117741e+000  8.496010e+000  2.000000e+001
    endloop
  endfacet
  facet normal  0.000000e+000  0.000000e+000 -1.000000e+000
    outer loop
      vertex -2.061041e+000  5.634971e+000  2.000000e+001
      vertex -3.117741e+000  8.496010e+000  2.000000e+001
      vertex -1.343518e+000  8.949718e+000  2.000000e+001
    endloop
  endfacet
  facet normal  0.000000e+000  -0.000000e+000 -1.000000e+000
    outer loop
      vertex -2.061041e+000  5.634971e+000  2.000000e+001
      vertex -1.343518e+000  8.949718e+000  2.000000e+001
      vertex  3.345975e-001  5.990832e+000  2.000000e+001
    endloop
  endfacet
  facet normal  0.000000e+000  0.000000e+000 -1.000000e+000
    outer loop
      vertex  3.345975e-001  5.990832e+000  2.000000e+001
      vertex -1.343518e+000  8.949718e+000  2.000000e+001
      vertex  5.031382e-001  9.036003e+000  2.000000e+001
    endloop
  endfacet
  facet normal  0.000000e+000  -0.000000e+000 -1.000000e+000
    outer loop
      vertex  3.345975e-001  5.990832e+000  2.000000e+001
      vertex  5.031382e-001  9.036003e+000  2.000000e+001
      vertex  2.330482e+000  8.744790e+000  2.000000e+001
    endloop
  endfacet
  facet normal  0.000000e+000  0.000000e+000 -1.000000e+000
    outer loop
      vertex  2.683282e+000  5.366563e+000  2.000000e+001
      vertex  5.463931e+000  7.214430e+000  2.000000e+001
      vertex  4.724243e+000  3.698859e+000  2.000000e+001
    endloop
  endfacet
  facet normal  0.000000e+000  -0.000000e+000 -1.000000e+000
    outer loop
      vertex  2.683282e+000  5.366563e+000  2.000000e+001
      vertex  4.047283e+000  8.094566e+000  2.000000e+001
      vertex  5.463931e+000  7.214430e+000  2.000000e+001
    endloop
  endfacet
  facet normal  0.000000e+000  -0.000000e+000 -1.000000e+000
    outer loop
      vertex  4.724243e+000  3.698859e+000  2.000000e+001
      vertex  5.463931e+000  7.214430e+000  2.000000e+001
      vertex  6.694860e+000  6.089453e+000  2.000000e+001
    endloop
  endfacet
  facet normal  0.000000e+000  0.000000e+000 -1.000000e+000
    outer loop
      vertex  8.440604e+000  3.264779e+000  2.000000e+001
      vertex  5.671977e+000  1.956711e+000  2.000000e+001
      vertex  7.698393e+000  4.757869e+000  2.000000e+001
    endloop
  endfacet
  facet normal  0.000000e+000  0.000000e+000 -1.000000e+000
    outer loop
      vertex  7.698393e+000  4.757869e+000  2.000000e+001
      vertex  5.671977e+000  1.956711e+000  2.000000e+001
      vertex  4.724243e+000  3.698859e+000  2.000000e+001
    endloop
  endfacet
  facet normal  0.000000e+000  0.000000e+000 -1.000000e+000
    outer loop
      vertex  7.698393e+000  4.757869e+000  2.000000e+001
      vertex  4.724243e+000  3.698859e+000  2.000000e+001
      vertex  6.694860e+000  6.089453e+000  2.000000e+001
    endloop
  endfacet
  facet normal  0.000000e+000  0.000000e+000 -9.999999e-001
    outer loop
      vertex  9.050000e+000 -8.881784e-016  2.000000e+001
      vertex  6.000000e+000  6.661338e-015  2.000000e+001
      vertex  8.896326e+000  1.660698e+000  2.000000e+001
    endloop
  endfacet
  facet normal  -0.000000e+000  0.000000e+000 -1.000000e+000
    outer loop
      vertex  8.896326e+000  1.660698e+000  2.000000e+001
      vertex  6.000000e+000  6.661338e-015  2.000000e+001
      vertex  5.671977e+000  1.956711e+000  2.000000e+001
    endloop
  endfacet
  facet normal  0.000000e+000  0.000000e+000 -9.999999e-001
    outer loop
      vertex  8.896326e+000  1.660698e+000  2.000000e+001
      vertex  5.671977e+000  1.956711e+000  2.000000e+001
      vertex  8.440604e+000  3.264779e+000  2.000000e+001
    endloop
  endfacet
  facet normal  0.000000e+000  0.000000e+000 -1.000000e+000
    outer loop
      vertex  4.700063e+000 -3.729536e+000  2.000000e+001
      vertex  6.166256e+000 -6.624182e+000  2.000000e+001
      vertex  3.000000e+000 -5.196152e+000  2.000000e+001
    endloop
  endfacet
  facet normal  0.000000e+000  0.000000e+000 -1.000000e+000
    outer loop
      vertex  6.166256e+000 -6.624182e+000  2.000000e+001
      vertex  3.412101e+000 -8.382128e+000  2.000000e+001
      vertex  3.000000e+000 -5.196152e+000  2.000000e+001
    endloop
  endfacet
  facet normal  -0.000000e+000  0.000000e+000 -1.000000e+000
    outer loop
      vertex  6.000000e+000  6.661338e-015  2.000000e+001
      vertex  9.050000e+000 -8.881784e-016  2.000000e+001
      vertex  5.611289e+000 -2.124492e+000  2.000000e+001
    endloop
  endfacet
  facet normal  0.000000e+000  0.000000e+000 -1.000000e+000
    outer loop
      vertex  5.611289e+000 -2.124492e+000  2.000000e+001
      vertex  9.050000e+000 -8.881784e-016  2.000000e+001
      vertex  9.041883e+000 -3.832076e-001  2.000000e+001
    endloop
  endfacet
  facet normal  0.000000e+000  0.000000e+000 -1.000000e+000
    outer loop
      vertex  5.611289e+000 -2.124492e+000  2.000000e+001
      vertex  9.041883e+000 -3.832076e-001  2.000000e+001
      vertex  8.316675e+000 -3.568670e+000  2.000000e+001
    endloop
  endfacet
  facet normal  -0.000000e+000  0.000000e+000 -1.000000e+000
    outer loop
      vertex  5.611289e+000 -2.124492e+000  2.000000e+001
      vertex  8.316675e+000 -3.568670e+000  2.000000e+001
      vertex  4.700063e+000 -3.729536e+000  2.000000e+001
    endloop
  endfacet
  facet normal  0.000000e+000  0.000000e+000 -1.000000e+000
    outer loop
      vertex  4.700063e+000 -3.729536e+000  2.000000e+001
      vertex  8.316675e+000 -3.568670e+000  2.000000e+001
      vertex  7.400923e+000 -5.208535e+000  2.000000e+001
    endloop
  endfacet
  facet normal  -0.000000e+000  0.000000e+000 -1.000000e+000
    outer loop
      vertex  4.700063e+000 -3.729536e+000  2.000000e+001
      vertex  7.400923e+000 -5.208535e+000  2.000000e+001
      vertex  6.166256e+000 -6.624182e+000  2.000000e+001
    endloop
  endfacet
  facet normal  0.000000e+000  0.000000e+000 -1.000000e+000
    outer loop
      vertex  3.000000e+000 -5.196152e+000  2.000000e+001
      vertex  3.412101e+000 -8.382128e+000  2.000000e+001
      vertex  1.669025e+000 -5.763281e+000  2.000000e+001
    endloop
  endfacet
  facet normal  0.000000e+000  0.000000e+000 -1.000000e+000
    outer loop
      vertex  1.669025e+000 -5.763281e+000  2.000000e+001
      vertex  3.412101e+000 -8.382128e+000  2.000000e+001
      vertex  1.821861e+000 -8.864723e+000  2.000000e+001
    endloop
  endfacet
  facet normal  0.000000e+000  0.000000e+000 -1.000000e+000
    outer loop
      vertex  1.669025e+000 -5.763281e+000  2.000000e+001
      vertex  1.821861e+000 -8.864723e+000  2.000000e+001
      vertex -1.662384e-001 -5.997934e+000  2.000000e+001
    endloop
  endfacet
  facet normal  0.000000e+000  0.000000e+000 -1.000000e+000
    outer loop
      vertex -1.662384e-001 -5.997934e+000  2.000000e+001
      vertex  1.821861e+000 -8.864723e+000  2.000000e+001
      vertex  1.068655e-001 -9.049369e+000  2.000000e+001
    endloop
  endfacet
  facet normal  0.000000e+000  0.000000e+000 -1.000000e+000
    outer loop
      vertex -1.662384e-001 -5.997934e+000  2.000000e+001
      vertex  1.068655e-001 -9.049369e+000  2.000000e+001
      vertex -1.981021e+000 -5.663600e+000  2.000000e+001
    endloop
  endfacet
  facet normal  0.000000e+000  0.000000e+000 -1.000000e+000
    outer loop
      vertex -1.981021e+000 -5.663600e+000  2.000000e+001
      vertex  1.068655e-001 -9.049369e+000  2.000000e+001
      vertex -1.663789e+000 -8.895746e+000  2.000000e+001
    endloop
  endfacet
  facet normal  0.000000e+000  0.000000e+000 -1.000000e+000
    outer loop
      vertex -1.981021e+000 -5.663600e+000  2.000000e+001
      vertex -1.663789e+000 -8.895746e+000  2.000000e+001
      vertex -3.369322e+000 -8.399415e+000  2.000000e+001
    endloop
  endfacet
  facet normal  0.000000e+000  0.000000e+000 -9.999999e-001
    outer loop
      vertex -1.981021e+000 -5.663600e+000  2.000000e+001
      vertex -3.369322e+000 -8.399415e+000  2.000000e+001
      vertex -3.607560e+000 -4.794359e+000  2.000000e+001
    endloop
  endfacet
  facet normal  0.000000e+000  -0.000000e+000 -1.000000e+000
    outer loop
      vertex -3.607560e+000 -4.794359e+000  2.000000e+001
      vertex -3.369322e+000 -8.399415e+000  2.000000e+001
      vertex -4.899290e+000 -7.609169e+000  2.000000e+001
    endloop
  endfacet
  facet normal  0.000000e+000  0.000000e+000 -1.000000e+000
    outer loop
      vertex -3.607560e+000 -4.794359e+000  2.000000e+001
      vertex -4.899290e+000 -7.609169e+000  2.000000e+001
      vertex -6.204915e+000 -6.587984e+000  2.000000e+001
    endloop
  endfacet
  facet normal  0.000000e+000  0.000000e+000 -1.000000e+000
    outer loop
      vertex -3.607560e+000 -4.794359e+000  2.000000e+001
      vertex -6.204915e+000 -6.587984e+000  2.000000e+001
      vertex -4.894148e+000 -3.471307e+000  2.000000e+001
    endloop
  endfacet
  facet normal  0.000000e+000  0.000000e+000 -1.000000e+000
    outer loop
      vertex -4.894148e+000 -3.471307e+000  2.000000e+001
      vertex -6.204915e+000 -6.587984e+000  2.000000e+001
      vertex -7.404597e+000 -5.203310e+000  2.000000e+001
    endloop
  endfacet
  facet normal  0.000000e+000  0.000000e+000 -1.000000e+000
    outer loop
      vertex -4.894148e+000 -3.471307e+000  2.000000e+001
      vertex -7.404597e+000 -5.203310e+000  2.000000e+001
      vertex -5.716097e+000 -1.824253e+000  2.000000e+001
    endloop
  endfacet
  facet normal  0.000000e+000  0.000000e+000 -1.000000e+000
    outer loop
      vertex -5.716097e+000 -1.824253e+000  2.000000e+001
      vertex -7.404597e+000 -5.203310e+000  2.000000e+001
      vertex -8.306981e+000 -3.591180e+000  2.000000e+001
    endloop
  endfacet
  facet normal  0.000000e+000  0.000000e+000 -1.000000e+000
    outer loop
      vertex -5.716097e+000 -1.824253e+000  2.000000e+001
      vertex -8.306981e+000 -3.591180e+000  2.000000e+001
      vertex -8.863557e+000 -1.827527e+000  2.000000e+001
    endloop
  endfacet
  facet normal  0.000000e+000  0.000000e+000 -1.000000e+000
    outer loop
      vertex -9.050000e+000 -2.910739e-015  2.000000e+001
      vertex -6.000000e+000 -1.776357e-015  2.000000e+001
      vertex -8.863557e+000 -1.827527e+000  2.000000e+001
    endloop
  endfacet
  facet normal  0.000000e+000  0.000000e+000 -1.000000e+000
    outer loop
      vertex -8.863557e+000 -1.827527e+000  2.000000e+001
      vertex -6.000000e+000 -1.776357e-015  2.000000e+001
      vertex -5.716097e+000 -1.824253e+000  2.000000e+001
    endloop
  endfacet
  facet normal  8.357790e-001  5.490658e-001  -0.000000e+000
    outer loop
      vertex  9.706640e+000  5.280506e+000  2.200000e+001
      vertex  8.700480e+000  6.812066e+000  2.000000e+001
      vertex  8.700480e+000  6.812066e+000  2.200000e+001
    endloop
  endfacet
  facet normal  7.335376e-001  6.796489e-001  0.000000e+000
    outer loop
      vertex  8.700480e+000  6.812066e+000  2.200000e+001
      vertex  8.700480e+000  6.812066e+000  2.000000e+001
      vertex  7.454869e+000  8.156441e+000  2.000000e+001
    endloop
  endfacet
  facet normal  7.335376e-001  6.796489e-001  -0.000000e+000
    outer loop
      vertex  8.700480e+000  6.812066e+000  2.200000e+001
      vertex  7.454869e+000  8.156441e+000  2.000000e+001
      vertex  7.454869e+000  8.156441e+000  2.200000e+001
    endloop
  endfacet
  facet normal  5.663468e-001  8.241670e-001  0.000000e+000
    outer loop
      vertex  7.454869e+000  8.156441e+000  2.200000e+001
      vertex  7.454869e+000  8.156441e+000  2.000000e+001
      vertex  4.941710e+000  9.883420e+000  2.000000e+001
    endloop
  endfacet
  facet normal  5.663468e-001  8.241670e-001  -0.000000e+000
    outer loop
      vertex  7.454869e+000  8.156441e+000  2.200000e+001
      vertex  4.941710e+000  9.883420e+000  2.000000e+001
      vertex  4.941710e+000  9.883420e+000  2.200000e+001
    endloop
  endfacet
  facet normal  8.357790e-001  5.490658e-001  0.000000e+000
    outer loop
      vertex  8.700480e+000  6.812066e+000  2.000000e+001
      vertex  9.706640e+000  5.280506e+000  2.200000e+001
      vertex  9.706640e+000  5.280506e+000  2.000000e+001
    endloop
  endfacet
  facet normal  9.150301e-001  4.033856e-001  -0.000000e+000
    outer loop
      vertex  9.706640e+000  5.280506e+000  2.000000e+001
      vertex  9.706640e+000  5.280506e+000  2.200000e+001
      vertex  1.044589e+001  3.603609e+000  2.200000e+001
    endloop
  endfacet
  facet normal  9.150301e-001  4.033856e-001  0.000000e+000
    outer loop
      vertex  9.706640e+000  5.280506e+000  2.000000e+001
      vertex  1.044589e+001  3.603609e+000  2.200000e+001
      vertex  1.044589e+001  3.603609e+000  2.000000e+001
    endloop
  endfacet
  facet normal  9.691213e-001  2.465848e-001  -0.000000e+000
    outer loop
      vertex  1.044589e+001  3.603609e+000  2.000000e+001
      vertex  1.044589e+001  3.603609e+000  2.200000e+001
      vertex  1.089789e+001  1.827175e+000  2.200000e+001
    endloop
  endfacet
  facet normal  9.691213e-001  2.465848e-001  0.000000e+000
    outer loop
      vertex  1.044589e+001  3.603609e+000  2.000000e+001
      vertex  1.089789e+001  1.827175e+000  2.200000e+001
      vertex  1.089789e+001  1.827175e+000  2.000000e+001
    endloop
  endfacet
  facet normal  9.965526e-001  8.296233e-002  -0.000000e+000
    outer loop
      vertex  1.089789e+001  1.827175e+000  2.000000e+001
      vertex  1.089789e+001  1.827175e+000  2.200000e+001
      vertex  1.105000e+001 -8.881784e-016  2.200000e+001
    endloop
  endfacet
  facet normal  9.965526e-001  8.296233e-002 -2.947414e-016
    outer loop
      vertex  1.089789e+001  1.827175e+000  2.000000e+001
      vertex  1.105000e+001 -8.881784e-016  2.200000e+001
      vertex  1.105000e+001 -7.993606e-015  2.000000e+001
    endloop
  endfacet
  facet normal -3.174399e-001 -9.476123e-001  3.553708e-002
    outer loop
      vertex -4.673542e+000 -1.001305e+001  2.200000e+001
      vertex -3.532655e+000 -1.047024e+001  2.000000e+001
      vertex -2.299051e+000 -1.080848e+001  2.200000e+001
    endloop
  endfacet
  facet normal -4.334019e-001 -9.002473e-001 -4.144011e-002
    outer loop
      vertex -5.980204e+000 -9.291926e+000  2.000000e+001
      vertex -3.532655e+000 -1.047024e+001  2.000000e+001
      vertex -4.673542e+000 -1.001305e+001  2.200000e+001
    endloop
  endfacet
  facet normal -1.661271e-001 -9.840285e-001 -6.395164e-002
    outer loop
      vertex -3.532655e+000 -1.047024e+001  2.000000e+001
      vertex -9.852695e-002 -1.105000e+001  2.000000e+001
      vertex -2.299051e+000 -1.080848e+001  2.200000e+001
    endloop
  endfacet
  facet normal  0.000000e+000 -9.927873e-001  1.198894e-001
    outer loop
      vertex -2.299051e+000 -1.080848e+001  2.200000e+001
      vertex -9.852695e-002 -1.105000e+001  2.000000e+001
      vertex  9.843313e-002 -1.105000e+001  2.000000e+001
    endloop
  endfacet
  facet normal -9.604075e-002 -9.953645e-001  5.072598e-003
    outer loop
      vertex -2.299051e+000 -1.080848e+001  2.200000e+001
      vertex  9.843313e-002 -1.105000e+001  2.000000e+001
      vertex  1.914161e-001 -1.104878e+001  2.200000e+001
    endloop
  endfacet
  facet normal  1.246628e-001 -9.921856e-001 -5.190176e-003
    outer loop
      vertex  1.914161e-001 -1.104878e+001  2.200000e+001
      vertex  9.843313e-002 -1.105000e+001  2.000000e+001
      vertex  2.636339e+000 -1.073113e+001  2.000000e+001
    endloop
  endfacet
  facet normal  1.307315e-001 -9.914150e-001  2.350968e-003
    outer loop
      vertex  1.914161e-001 -1.104878e+001  2.200000e+001
      vertex  2.636339e+000 -1.073113e+001  2.000000e+001
      vertex  2.677238e+000 -1.072099e+001  2.200000e+001
    endloop
  endfacet
  facet normal  3.495456e-001 -9.369164e-001 -2.399786e-003
    outer loop
      vertex  2.677238e+000 -1.072099e+001  2.200000e+001
      vertex  2.636339e+000 -1.073113e+001  2.000000e+001
      vertex  5.034962e+000 -9.836246e+000  2.000000e+001
    endloop
  endfacet
  facet normal  3.746514e-001 -9.266219e-001  3.175049e-002
    outer loop
      vertex  2.677238e+000 -1.072099e+001  2.200000e+001
      vertex  5.034962e+000 -9.836246e+000  2.000000e+001
      vertex  5.524949e+000 -9.569605e+000  2.200000e+001
    endloop
  endfacet
  facet normal  5.556018e-001 -8.310628e-001 -2.532111e-002
    outer loop
      vertex  5.524949e+000 -9.569605e+000  2.200000e+001
      vertex  5.034962e+000 -9.836246e+000  2.000000e+001
      vertex  7.164949e+000 -8.412256e+000  2.000000e+001
    endloop
  endfacet
  facet normal  5.739199e-001 -8.189049e-001 -3.264842e-003
    outer loop
      vertex  5.524949e+000 -9.569605e+000  2.200000e+001
      vertex  7.164949e+000 -8.412256e+000  2.000000e+001
      vertex  7.110063e+000 -8.458696e+000  2.200000e+001
    endloop
  endfacet
  facet normal  7.322853e-001 -6.809844e-001  4.283728e-003
    outer loop
      vertex  7.110063e+000 -8.458696e+000  2.200000e+001
      vertex  7.164949e+000 -8.412256e+000  2.000000e+001
      vertex  8.909611e+000 -6.536163e+000  2.000000e+001
    endloop
  endfacet
  facet normal  7.259721e-001 -6.876795e-001 -7.832456e-003
    outer loop
      vertex  7.110063e+000 -8.458696e+000  2.200000e+001
      vertex  8.909611e+000 -6.536163e+000  2.000000e+001
      vertex  8.831212e+000 -6.641707e+000  2.200000e+001
    endloop
  endfacet
  facet normal  8.653435e-001 -5.011235e-001  7.475714e-003
    outer loop
      vertex  8.831212e+000 -6.641707e+000  2.200000e+001
      vertex  8.909611e+000 -6.536163e+000  2.000000e+001
      vertex  1.010356e+001 -4.474438e+000  2.000000e+001
    endloop
  endfacet
  facet normal  8.621215e-001 -5.067012e-001 -6.182772e-004
    outer loop
      vertex  8.831212e+000 -6.641707e+000  2.200000e+001
      vertex  1.010356e+001 -4.474438e+000  2.000000e+001
      vertex  1.009916e+001 -4.484378e+000  2.200000e+001
    endloop
  endfacet
  facet normal  9.526755e-001 -3.039889e-001  5.887935e-004
    outer loop
      vertex  1.009916e+001 -4.484378e+000  2.200000e+001
      vertex  1.010356e+001 -4.474438e+000  2.000000e+001
      vertex  1.082785e+001 -2.204578e+000  2.000000e+001
    endloop
  endfacet
  facet normal  9.512718e-001 -3.083155e-001 -4.854467e-003
    outer loop
      vertex  1.009916e+001 -4.484378e+000  2.200000e+001
      vertex  1.082785e+001 -2.204578e+000  2.000000e+001
      vertex  1.080961e+001 -2.292345e+000  2.200000e+001
    endloop
  endfacet
  facet normal  9.949505e-001 -1.002578e-001  4.674241e-003
    outer loop
      vertex  1.080961e+001 -2.292345e+000  2.200000e+001
      vertex  1.082785e+001 -2.204578e+000  2.000000e+001
      vertex  1.105000e+001 -7.993606e-015  2.000000e+001
    endloop
  endfacet
  facet normal  9.945465e-001 -1.042936e-001  3.705254e-016
    outer loop
      vertex  1.080961e+001 -2.292345e+000  2.200000e+001
      vertex  1.105000e+001 -7.993606e-015  2.000000e+001
      vertex  1.105000e+001 -8.881784e-016  2.200000e+001
    endloop
  endfacet
  facet normal -5.225419e-001 -8.519265e-001  3.422041e-002
    outer loop
      vertex -4.673542e+000 -1.001305e+001  2.200000e+001
      vertex -6.807416e+000 -8.704206e+000  2.200000e+001
      vertex -5.980204e+000 -9.291926e+000  2.000000e+001
    endloop
  endfacet
  facet normal -6.988099e-001 -7.108021e-001 -8.015598e-002
    outer loop
      vertex -5.980204e+000 -9.291926e+000  2.000000e+001
      vertex -6.807416e+000 -8.704206e+000  2.200000e+001
      vertex -8.588869e+000 -6.952809e+000  2.200000e+001
    endloop
  endfacet
  facet normal -6.367010e-001 -7.681166e-001  6.788740e-002
    outer loop
      vertex -5.980204e+000 -9.291926e+000  2.000000e+001
      vertex -8.588869e+000 -6.952809e+000  2.200000e+001
      vertex -8.023134e+000 -7.598517e+000  2.000000e+001
    endloop
  endfacet
  facet normal -8.416822e-001 -5.360441e-001 -6.502061e-002
    outer loop
      vertex -8.023134e+000 -7.598517e+000  2.000000e+001
      vertex -8.588869e+000 -6.952809e+000  2.200000e+001
      vertex -9.932871e+000 -4.842494e+000  2.200000e+001
    endloop
  endfacet
  facet normal -8.022153e-001 -5.946409e-001  5.341205e-002
    outer loop
      vertex -8.023134e+000 -7.598517e+000  2.000000e+001
      vertex -9.932871e+000 -4.842494e+000  2.200000e+001
      vertex -9.604067e+000 -5.465720e+000  2.000000e+001
    endloop
  endfacet
  facet normal -9.414575e-001 -3.332626e-001 -5.092852e-002
    outer loop
      vertex -9.604067e+000 -5.465720e+000  2.000000e+001
      vertex -9.932871e+000 -4.842494e+000  2.200000e+001
      vertex -1.076655e+001 -2.487368e+000  2.200000e+001
    endloop
  endfacet
  facet normal -9.253615e-001 -3.782342e-001  2.539787e-002
    outer loop
      vertex -9.604067e+000 -5.465720e+000  2.000000e+001
      vertex -1.076655e+001 -2.487368e+000  2.200000e+001
      vertex -1.068212e+001 -2.828222e+000  2.000000e+001
    endloop
  endfacet
  facet normal -9.933150e-001 -1.131933e-001 -2.264096e-002
    outer loop
      vertex -1.068212e+001 -2.828222e+000  2.000000e+001
      vertex -1.076655e+001 -2.487368e+000  2.200000e+001
      vertex -1.105000e+001 -3.286260e-014  2.200000e+001
    endloop
  endfacet
  facet normal -9.916463e-001 -1.289870e-001 -1.260198e-015
    outer loop
      vertex -1.068212e+001 -2.828222e+000  2.000000e+001
      vertex -1.105000e+001 -3.286260e-014  2.200000e+001
      vertex -1.105000e+001 -1.332268e-014  2.000000e+001
    endloop
  endfacet
  facet normal -6.089038e-001  7.927376e-001  2.834188e-002
    outer loop
      vertex -5.809329e+000  9.399693e+000  2.200000e+001
      vertex -6.768643e+000  8.734344e+000  2.000000e+001
      vertex -7.584619e+000  8.036088e+000  2.200000e+001
    endloop
  endfacet
  facet normal -7.010480e-001  7.121330e-001 -3.739311e-002
    outer loop
      vertex -7.584619e+000  8.036088e+000  2.200000e+001
      vertex -6.768643e+000  8.734344e+000  2.000000e+001
      vertex -8.628477e+000  6.903461e+000  2.000000e+001
    endloop
  endfacet
  facet normal -7.562792e-001  6.537911e-001  2.447353e-002
    outer loop
      vertex -7.584619e+000  8.036088e+000  2.200000e+001
      vertex -8.628477e+000  6.903461e+000  2.000000e+001
      vertex -9.049654e+000  6.341394e+000  2.200000e+001
    endloop
  endfacet
  facet normal -8.487816e-001  5.278692e-001 -3.039469e-002
    outer loop
      vertex -9.049654e+000  6.341394e+000  2.200000e+001
      vertex -8.628477e+000  6.903461e+000  2.000000e+001
      vertex -1.000758e+001  4.685941e+000  2.000000e+001
    endloop
  endfacet
  facet normal -8.728822e-001  4.877190e-001  1.438197e-002
    outer loop
      vertex -9.049654e+000  6.341394e+000  2.200000e+001
      vertex -1.000758e+001  4.685941e+000  2.000000e+001
      vertex -1.014390e+001  4.382998e+000  2.200000e+001
    endloop
  endfacet
  facet normal -9.493186e-001  3.138461e-001 -1.716457e-002
    outer loop
      vertex -1.014390e+001  4.382998e+000  2.200000e+001
      vertex -1.000758e+001  4.685941e+000  2.000000e+001
      vertex -1.082798e+001  2.204429e+000  2.000000e+001
    endloop
  endfacet
  facet normal -9.535805e-001  3.011324e-001 -1.857993e-003
    outer loop
      vertex -1.014390e+001  4.382998e+000  2.200000e+001
      vertex -1.082798e+001  2.204429e+000  2.000000e+001
      vertex -1.082074e+001  2.239666e+000  2.200000e+001
    endloop
  endfacet
  facet normal -9.949646e-001  1.002105e-001  1.831600e-003
    outer loop
      vertex -1.082074e+001  2.239666e+000  2.200000e+001
      vertex -1.082798e+001  2.204429e+000  2.000000e+001
      vertex -1.105000e+001 -1.332268e-014  2.000000e+001
    endloop
  endfacet
  facet normal -9.948019e-001  1.018295e-001  9.948701e-016
    outer loop
      vertex -1.082074e+001  2.239666e+000  2.200000e+001
      vertex -1.105000e+001 -1.332268e-014  2.000000e+001
      vertex -1.105000e+001 -3.286260e-014  2.200000e+001
    endloop
  endfacet
  facet normal  -0.000000e+000  9.999644e-001  8.442101e-003
    outer loop
      vertex  8.645273e-002  1.105000e+001  2.000000e+001
      vertex -8.717467e-002  1.105000e+001  2.000000e+001
      vertex  6.162171e-001  1.103312e+001  2.200000e+001
    endloop
  endfacet
  facet normal -1.112650e-001  9.926543e-001  4.751184e-002
    outer loop
      vertex  6.162171e-001  1.103312e+001  2.200000e+001
      vertex -8.717467e-002  1.105000e+001  2.000000e+001
      vertex -2.360626e+000  1.079517e+001  2.000000e+001
    endloop
  endfacet
  facet normal -4.581069e-002  9.976724e-001 -5.050881e-002
    outer loop
      vertex  6.162171e-001  1.103312e+001  2.200000e+001
      vertex -2.360626e+000  1.079517e+001  2.000000e+001
      vertex -1.624787e+000  1.093021e+001  2.200000e+001
    endloop
  endfacet
  facet normal -3.132292e-001  9.482957e-001  5.121359e-002
    outer loop
      vertex -1.624787e+000  1.093021e+001  2.200000e+001
      vertex -2.360626e+000  1.079517e+001  2.000000e+001
      vertex -4.531827e+000  1.007801e+001  2.000000e+001
    endloop
  endfacet
  facet normal -2.462589e-001  9.676769e-001 -5.438749e-002
    outer loop
      vertex -1.624787e+000  1.093021e+001  2.200000e+001
      vertex -4.531827e+000  1.007801e+001  2.000000e+001
      vertex -3.795751e+000  1.037774e+001  2.200000e+001
    endloop
  endfacet
  facet normal -5.139824e-001  8.556336e-001  6.093623e-002
    outer loop
      vertex -3.795751e+000  1.037774e+001  2.200000e+001
      vertex -4.531827e+000  1.007801e+001  2.000000e+001
      vertex -6.768643e+000  8.734344e+000  2.000000e+001
    endloop
  endfacet
  facet normal -4.351653e-001  8.959095e-001 -8.931567e-002
    outer loop
      vertex -3.795751e+000  1.037774e+001  2.200000e+001
      vertex -6.768643e+000  8.734344e+000  2.000000e+001
      vertex -5.809329e+000  9.399693e+000  2.200000e+001
    endloop
  endfacet
  facet normal  1.570264e-001  9.870341e-001 -3.326057e-002
    outer loop
      vertex  6.162171e-001  1.103312e+001  2.200000e+001
      vertex  2.835966e+000  1.067998e+001  2.200000e+001
      vertex  8.645273e-002  1.105000e+001  2.000000e+001
    endloop
  endfacet
  facet normal  1.215037e-001  9.924526e-001  1.657704e-002
    outer loop
      vertex  8.645273e-002  1.105000e+001  2.000000e+001
      vertex  2.835966e+000  1.067998e+001  2.200000e+001
      vertex  2.579903e+000  1.074473e+001  2.000000e+001
    endloop
  endfacet
  facet normal  3.537704e-001  9.352118e-001 -1.501377e-002
    outer loop
      vertex  2.835966e+000  1.067998e+001  2.200000e+001
      vertex  4.941710e+000  9.883420e+000  2.200000e+001
      vertex  2.579903e+000  1.074473e+001  2.000000e+001
    endloop
  endfacet
  facet normal  3.426121e-001  9.394770e-001  0.000000e+000
    outer loop
      vertex  2.579903e+000  1.074473e+001  2.000000e+001
      vertex  4.941710e+000  9.883420e+000  2.200000e+001
      vertex  4.941710e+000  9.883420e+000  2.000000e+001
    endloop
  endfacet
  facet normal  6.427676e-001  7.660205e-001 -7.898127e-003
    outer loop
      vertex  5.525000e+000  9.569581e+000  0.000000e+000
      vertex  7.454869e+000  8.156441e+000  2.000000e+001
      vertex  8.464791e+000  7.102803e+000  0.000000e+000
    endloop
  endfacet
  facet normal  9.150299e-001  4.033855e-001  6.942861e-004
    outer loop
      vertex  9.706640e+000  5.280506e+000  2.000000e+001
      vertex  1.044589e+001  3.603609e+000  2.000000e+001
      vertex  1.038360e+001  3.779323e+000  0.000000e+000
    endloop
  endfacet
  facet normal -9.848077e-001  1.736483e-001  1.274220e-016
    outer loop
      vertex -1.105000e+001  1.353190e-015  0.000000e+000
      vertex -1.105000e+001 -1.332268e-014  2.000000e+001
      vertex -1.038360e+001  3.779323e+000  0.000000e+000
    endloop
  endfacet
  facet normal -9.948657e-001  1.002006e-001 -1.421427e-002
    outer loop
      vertex -1.038360e+001  3.779323e+000  0.000000e+000
      vertex -1.105000e+001 -1.332268e-014  2.000000e+001
      vertex -1.082798e+001  2.204429e+000  2.000000e+001
    endloop
  endfacet
  facet normal -9.494523e-001  3.138903e-001  3.621689e-003
    outer loop
      vertex -1.038360e+001  3.779323e+000  0.000000e+000
      vertex -1.082798e+001  2.204429e+000  2.000000e+001
      vertex -1.000758e+001  4.685941e+000  2.000000e+001
    endloop
  endfacet
  facet normal -8.660078e-001  4.999897e-001 -6.383207e-003
    outer loop
      vertex -1.038360e+001  3.779323e+000  0.000000e+000
      vertex -1.000758e+001  4.685941e+000  2.000000e+001
      vertex -8.464791e+000  7.102803e+000  0.000000e+000
    endloop
  endfacet
  facet normal -8.491728e-001  5.281124e-001 -1.686120e-003
    outer loop
      vertex -8.464791e+000  7.102803e+000  0.000000e+000
      vertex -1.000758e+001  4.685941e+000  2.000000e+001
      vertex -8.628477e+000  6.903461e+000  2.000000e+001
    endloop
  endfacet
  facet normal -6.427858e-001  7.660422e-001  2.374484e-003
    outer loop
      vertex -8.464791e+000  7.102803e+000  0.000000e+000
      vertex -8.628477e+000  6.903461e+000  2.000000e+001
      vertex -5.525000e+000  9.569581e+000  0.000000e+000
    endloop
  endfacet
  facet normal -7.014711e-001  7.125630e-001 -1.386106e-002
    outer loop
      vertex -5.525000e+000  9.569581e+000  0.000000e+000
      vertex -8.628477e+000  6.903461e+000  2.000000e+001
      vertex -6.768643e+000  8.734344e+000  2.000000e+001
    endloop
  endfacet
  facet normal -5.149357e-001  8.572206e-001  3.779283e-003
    outer loop
      vertex -5.525000e+000  9.569581e+000  0.000000e+000
      vertex -6.768643e+000  8.734344e+000  2.000000e+001
      vertex -4.531827e+000  1.007801e+001  2.000000e+001
    endloop
  endfacet
  facet normal -3.420120e-001  9.396703e-001 -6.903862e-003
    outer loop
      vertex -5.525000e+000  9.569581e+000  0.000000e+000
      vertex -4.531827e+000  1.007801e+001  2.000000e+001
      vertex -1.918812e+000  1.088213e+001  0.000000e+000
    endloop
  endfacet
  facet normal -3.136395e-001  9.495381e-001 -2.800239e-003
    outer loop
      vertex -1.918812e+000  1.088213e+001  0.000000e+000
      vertex -4.531827e+000  1.007801e+001  2.000000e+001
      vertex -2.360626e+000  1.079517e+001  2.000000e+001
    endloop
  endfacet
  facet normal -1.113907e-001  9.937750e-001  1.859900e-003
    outer loop
      vertex -1.918812e+000  1.088213e+001  0.000000e+000
      vertex -2.360626e+000  1.079517e+001  2.000000e+001
      vertex -8.717467e-002  1.105000e+001  2.000000e+001
    endloop
  endfacet
  facet normal  0.000000e+000  9.999648e-001 -8.393421e-003
    outer loop
      vertex -1.918812e+000  1.088213e+001  0.000000e+000
      vertex -8.717467e-002  1.105000e+001  2.000000e+001
      vertex  1.918812e+000  1.088213e+001  0.000000e+000
    endloop
  endfacet
  facet normal  0.000000e+000  9.999648e-001 -8.393421e-003
    outer loop
      vertex  1.918812e+000  1.088213e+001  0.000000e+000
      vertex -8.717467e-002  1.105000e+001  2.000000e+001
      vertex  8.645273e-002  1.105000e+001  2.000000e+001
    endloop
  endfacet
  facet normal  1.215199e-001  9.925851e-001  2.801930e-003
    outer loop
      vertex  1.918812e+000  1.088213e+001  0.000000e+000
      vertex  8.645273e-002  1.105000e+001  2.000000e+001
      vertex  2.579903e+000  1.074473e+001  2.000000e+001
    endloop
  endfacet
  facet normal  3.420160e-001  9.396815e-001 -4.849895e-003
    outer loop
      vertex  1.918812e+000  1.088213e+001  0.000000e+000
      vertex  2.579903e+000  1.074473e+001  2.000000e+001
      vertex  5.525000e+000  9.569581e+000  0.000000e+000
    endloop
  endfacet
  facet normal  3.426082e-001  9.394664e-001 -4.750059e-003
    outer loop
      vertex  5.525000e+000  9.569581e+000  0.000000e+000
      vertex  2.579903e+000  1.074473e+001  2.000000e+001
      vertex  4.941710e+000  9.883420e+000  2.000000e+001
    endloop
  endfacet
  facet normal  5.663432e-001  8.241618e-001  3.584414e-003
    outer loop
      vertex  5.525000e+000  9.569581e+000  0.000000e+000
      vertex  4.941710e+000  9.883420e+000  2.000000e+001
      vertex  7.454869e+000  8.156441e+000  2.000000e+001
    endloop
  endfacet
  facet normal  8.357093e-001  5.490200e-001 -1.292177e-002
    outer loop
      vertex  9.706640e+000  5.280506e+000  2.000000e+001
      vertex  1.038360e+001  3.779323e+000  0.000000e+000
      vertex  8.700480e+000  6.812066e+000  2.000000e+001
    endloop
  endfacet
  facet normal  8.660218e-001  4.999977e-001 -2.937189e-003
    outer loop
      vertex  8.700480e+000  6.812066e+000  2.000000e+001
      vertex  1.038360e+001  3.779323e+000  0.000000e+000
      vertex  8.464791e+000  7.102803e+000  0.000000e+000
    endloop
  endfacet
  facet normal  7.335370e-001  6.796483e-001  1.235630e-003
    outer loop
      vertex  8.700480e+000  6.812066e+000  2.000000e+001
      vertex  8.464791e+000  7.102803e+000  0.000000e+000
      vertex  7.454869e+000  8.156441e+000  2.000000e+001
    endloop
  endfacet
  facet normal  9.848065e-001  1.736481e-001 -1.541428e-003
    outer loop
      vertex  1.038360e+001  3.779323e+000  0.000000e+000
      vertex  1.044589e+001  3.603609e+000  2.000000e+001
      vertex  1.105000e+001  0.000000e+000  0.000000e+000
    endloop
  endfacet
  facet normal  9.690099e-001  2.465565e-001 -1.515523e-002
    outer loop
      vertex  1.105000e+001  0.000000e+000  0.000000e+000
      vertex  1.044589e+001  3.603609e+000  2.000000e+001
      vertex  1.089789e+001  1.827175e+000  2.000000e+001
    endloop
  endfacet
  facet normal  9.965527e-001  8.296233e-002  0.000000e+000
    outer loop
      vertex  1.105000e+001  0.000000e+000  0.000000e+000
      vertex  1.089789e+001  1.827175e+000  2.000000e+001
      vertex  1.105000e+001 -7.993606e-015  2.000000e+001
    endloop
  endfacet
  facet normal  8.314393e-001 -5.555500e-001  8.542105e-003
    outer loop
      vertex -6.399316e+000  6.399316e+000  0.000000e+000
      vertex -7.652679e+000  4.831045e+000  2.000000e+001
      vertex -8.361110e+000  3.463285e+000  0.000000e+000
    endloop
  endfacet
  facet normal  7.452314e-001 -6.667825e-001 -5.582527e-003
    outer loop
      vertex -6.399316e+000  6.399316e+000  0.000000e+000
      vertex -5.649032e+000  7.070427e+000  2.000000e+001
      vertex -7.652679e+000  4.831045e+000  2.000000e+001
    endloop
  endfacet
  facet normal  5.555564e-001 -8.314489e-001  7.058450e-003
    outer loop
      vertex -5.649032e+000  7.070427e+000  2.000000e+001
      vertex -6.399316e+000  6.399316e+000  0.000000e+000
      vertex -3.463285e+000  8.361110e+000  0.000000e+000
    endloop
  endfacet
  facet normal -8.954641e-001 -4.451329e-001 -8.588634e-004
    outer loop
      vertex  8.361110e+000  3.463285e+000  0.000000e+000
      vertex  8.440604e+000  3.264779e+000  2.000000e+001
      vertex  7.698393e+000  4.757869e+000  2.000000e+001
    endloop
  endfacet
  facet normal  9.203966e-001 -3.909419e-001 -5.866111e-003
    outer loop
      vertex -7.652679e+000  4.831045e+000  2.000000e+001
      vertex -8.790145e+000  2.153104e+000  2.000000e+001
      vertex -8.361110e+000  3.463285e+000  0.000000e+000
    endloop
  endfacet
  facet normal  9.927059e-001 -1.198084e-001  1.344675e-002
    outer loop
      vertex -8.361110e+000  3.463285e+000  0.000000e+000
      vertex -8.790145e+000  2.153104e+000  2.000000e+001
      vertex -9.050000e+000 -2.910739e-015  2.000000e+001
    endloop
  endfacet
  facet normal  9.807853e-001 -1.950904e-001  0.000000e+000
    outer loop
      vertex -8.361110e+000  3.463285e+000  0.000000e+000
      vertex -9.050000e+000 -2.910739e-015  2.000000e+001
      vertex -9.050000e+000 -2.910739e-015  0.000000e+000
    endloop
  endfacet
  facet normal  4.907124e-001 -8.713178e-001 -2.601084e-003
    outer loop
      vertex -5.649032e+000  7.070427e+000  2.000000e+001
      vertex -3.463285e+000  8.361110e+000  0.000000e+000
      vertex -3.117741e+000  8.496010e+000  2.000000e+001
    endloop
  endfacet
  facet normal  1.950894e-001 -9.807801e-001  3.244772e-003
    outer loop
      vertex -3.117741e+000  8.496010e+000  2.000000e+001
      vertex -3.463285e+000  8.361110e+000  0.000000e+000
      vertex -1.455369e-015  9.050000e+000  0.000000e+000
    endloop
  endfacet
  facet normal  2.477328e-001 -9.687567e-001  1.178425e-002
    outer loop
      vertex -3.117741e+000  8.496010e+000  2.000000e+001
      vertex -1.455369e-015  9.050000e+000  0.000000e+000
      vertex -1.343518e+000  8.949718e+000  2.000000e+001
    endloop
  endfacet
  facet normal  4.667379e-002 -9.989084e-001 -1.873258e-003
    outer loop
      vertex -1.343518e+000  8.949718e+000  2.000000e+001
      vertex -1.455369e-015  9.050000e+000  0.000000e+000
      vertex  5.031382e-001  9.036003e+000  2.000000e+001
    endloop
  endfacet
  facet normal -1.950886e-001 -9.807765e-001  4.221427e-003
    outer loop
      vertex  5.031382e-001  9.036003e+000  2.000000e+001
      vertex -1.455369e-015  9.050000e+000  0.000000e+000
      vertex  3.463285e+000  8.361110e+000  0.000000e+000
    endloop
  endfacet
  facet normal -1.573702e-001 -9.874887e-001  1.003053e-002
    outer loop
      vertex  5.031382e-001  9.036003e+000  2.000000e+001
      vertex  3.463285e+000  8.361110e+000  0.000000e+000
      vertex  2.330482e+000  8.744790e+000  2.000000e+001
    endloop
  endfacet
  facet normal -3.541884e-001 -9.351717e-001 -2.120925e-003
    outer loop
      vertex  2.330482e+000  8.744790e+000  2.000000e+001
      vertex  3.463285e+000  8.361110e+000  0.000000e+000
      vertex  4.047283e+000  8.094566e+000  2.000000e+001
    endloop
  endfacet
  facet normal -5.555629e-001 -8.314586e-001  5.141397e-003
    outer loop
      vertex  4.047283e+000  8.094566e+000  2.000000e+001
      vertex  3.463285e+000  8.361110e+000  0.000000e+000
      vertex  6.399316e+000  6.399316e+000  0.000000e+000
    endloop
  endfacet
  facet normal -5.276994e-001 -8.493731e-001  9.936665e-003
    outer loop
      vertex  4.047283e+000  8.094566e+000  2.000000e+001
      vertex  6.399316e+000  6.399316e+000  0.000000e+000
      vertex  5.463931e+000  7.214430e+000  2.000000e+001
    endloop
  endfacet
  facet normal -6.746237e-001 -7.381604e-001 -1.467428e-003
    outer loop
      vertex  5.463931e+000  7.214430e+000  2.000000e+001
      vertex  6.399316e+000  6.399316e+000  0.000000e+000
      vertex  6.694860e+000  6.089453e+000  2.000000e+001
    endloop
  endfacet
  facet normal -8.314640e-001 -5.555665e-001  3.679186e-003
    outer loop
      vertex  6.694860e+000  6.089453e+000  2.000000e+001
      vertex  6.399316e+000  6.399316e+000  0.000000e+000
      vertex  8.361110e+000  3.463285e+000  0.000000e+000
    endloop
  endfacet
  facet normal -7.985407e-001 -6.018112e-001  1.249444e-002
    outer loop
      vertex  6.694860e+000  6.089453e+000  2.000000e+001
      vertex  8.361110e+000  3.463285e+000  0.000000e+000
      vertex  7.698393e+000  4.757869e+000  2.000000e+001
    endloop
  endfacet
  facet normal -9.957459e-001 -9.214223e-002  0.000000e+000
    outer loop
      vertex  9.050000e+000 -8.881784e-016  2.000000e+001
      vertex  8.896326e+000  1.660698e+000  2.000000e+001
      vertex  9.050000e+000 -1.025455e-014  0.000000e+000
    endloop
  endfacet
  facet normal -9.618201e-001 -2.732546e-001  1.529932e-002
    outer loop
      vertex  9.050000e+000 -1.025455e-014  0.000000e+000
      vertex  8.896326e+000  1.660698e+000  2.000000e+001
      vertex  8.440604e+000  3.264779e+000  2.000000e+001
    endloop
  endfacet
  facet normal -9.807834e-001 -1.950900e-001  1.962013e-003
    outer loop
      vertex  9.050000e+000 -1.025455e-014  0.000000e+000
      vertex  8.440604e+000  3.264779e+000  2.000000e+001
      vertex  8.361110e+000  3.463285e+000  0.000000e+000
    endloop
  endfacet
  facet normal  0.000000e+000  0.000000e+000 -1.000000e+000
    outer loop
      vertex -1.455369e-015  9.050000e+000  0.000000e+000
      vertex -3.463285e+000  8.361110e+000  0.000000e+000
      vertex -5.525000e+000  9.569581e+000  0.000000e+000
    endloop
  endfacet
  facet normal  0.000000e+000  -0.000000e+000 -9.999999e-001
    outer loop
      vertex -5.525000e+000  9.569581e+000  0.000000e+000
      vertex -3.463285e+000  8.361110e+000  0.000000e+000
      vertex -6.399316e+000  6.399316e+000  0.000000e+000
    endloop
  endfacet
  facet normal  0.000000e+000  0.000000e+000 -1.000000e+000
    outer loop
      vertex -5.525000e+000  9.569581e+000  0.000000e+000
      vertex -6.399316e+000  6.399316e+000  0.000000e+000
      vertex -8.464791e+000  7.102803e+000  0.000000e+000
    endloop
  endfacet
  facet normal  0.000000e+000  0.000000e+000 -1.000000e+000
    outer loop
      vertex -8.464791e+000  7.102803e+000  0.000000e+000
      vertex -6.399316e+000  6.399316e+000  0.000000e+000
      vertex -8.361110e+000  3.463285e+000  0.000000e+000
    endloop
  endfacet
  facet normal  0.000000e+000  0.000000e+000 -9.999999e-001
    outer loop
      vertex -8.464791e+000  7.102803e+000  0.000000e+000
      vertex -8.361110e+000  3.463285e+000  0.000000e+000
      vertex -1.038360e+001  3.779323e+000  0.000000e+000
    endloop
  endfacet
  facet normal  0.000000e+000  0.000000e+000 -1.000000e+000
    outer loop
      vertex -1.038360e+001  3.779323e+000  0.000000e+000
      vertex -8.361110e+000  3.463285e+000  0.000000e+000
      vertex -9.050000e+000 -2.910739e-015  0.000000e+000
    endloop
  endfacet
  facet normal  0.000000e+000  0.000000e+000 -1.000000e+000
    outer loop
      vertex -1.038360e+001  3.779323e+000  0.000000e+000
      vertex -9.050000e+000 -2.910739e-015  0.000000e+000
      vertex -1.105000e+001  1.353190e-015  0.000000e+000
    endloop
  endfacet
  facet normal  0.000000e+000  0.000000e+000 -9.999999e-001
    outer loop
      vertex -1.455369e-015  9.050000e+000  0.000000e+000
      vertex -5.525000e+000  9.569581e+000  0.000000e+000
      vertex  5.525000e+000  9.569581e+000  0.000000e+000
    endloop
  endfacet
  facet normal  0.000000e+000  0.000000e+000 -1.000000e+000
    outer loop
      vertex  5.525000e+000  9.569581e+000  0.000000e+000
      vertex -5.525000e+000  9.569581e+000  0.000000e+000
      vertex -1.918812e+000  1.088213e+001  0.000000e+000
    endloop
  endfacet
  facet normal  0.000000e+000  0.000000e+000 -1.000000e+000
    outer loop
      vertex  5.525000e+000  9.569581e+000  0.000000e+000
      vertex -1.918812e+000  1.088213e+001  0.000000e+000
      vertex  1.918812e+000  1.088213e+001  0.000000e+000
    endloop
  endfacet
  facet normal  0.000000e+000  0.000000e+000 -1.000000e+000
    outer loop
      vertex -1.455369e-015  9.050000e+000  0.000000e+000
      vertex  5.525000e+000  9.569581e+000  0.000000e+000
      vertex  3.463285e+000  8.361110e+000  0.000000e+000
    endloop
  endfacet
  facet normal  0.000000e+000  0.000000e+000 -1.000000e+000
    outer loop
      vertex  3.463285e+000  8.361110e+000  0.000000e+000
      vertex  5.525000e+000  9.569581e+000  0.000000e+000
      vertex  8.464791e+000  7.102803e+000  0.000000e+000
    endloop
  endfacet
  facet normal  -0.000000e+000  0.000000e+000 -1.000000e+000
    outer loop
      vertex  3.463285e+000  8.361110e+000  0.000000e+000
      vertex  8.464791e+000  7.102803e+000  0.000000e+000
      vertex  6.399316e+000  6.399316e+000  0.000000e+000
    endloop
  endfacet
  facet normal  0.000000e+000  0.000000e+000 -1.000000e+000
    outer loop
      vertex  6.399316e+000  6.399316e+000  0.000000e+000
      vertex  8.464791e+000  7.102803e+000  0.000000e+000
      vertex  1.038360e+001  3.779323e+000  0.000000e+000
    endloop
  endfacet
  facet normal  -0.000000e+000  0.000000e+000 -1.000000e+000
    outer loop
      vertex  6.399316e+000  6.399316e+000  0.000000e+000
      vertex  1.038360e+001  3.779323e+000  0.000000e+000
      vertex  8.361110e+000  3.463285e+000  0.000000e+000
    endloop
  endfacet
  facet normal  0.000000e+000  0.000000e+000 -1.000000e+000
    outer loop
      vertex  8.361110e+000  3.463285e+000  0.000000e+000
      vertex  1.038360e+001  3.779323e+000  0.000000e+000
      vertex  1.105000e+001  0.000000e+000  0.000000e+000
    endloop
  endfacet
  facet normal  -0.000000e+000  0.000000e+000 -1.000000e+000
    outer loop
      vertex  8.361110e+000  3.463285e+000  0.000000e+000
      vertex  1.105000e+001  0.000000e+000  0.000000e+000
      vertex  9.050000e+000 -1.025455e-014  0.000000e+000
    endloop
  endfacet
  facet normal -6.327437e-001 -7.743613e-001  0.000000e+000
    outer loop
      vertex  2.683282e+000  5.366563e+000  2.200000e+001
      vertex  2.683282e+000  5.366563e+000  2.000000e+001
      vertex  4.724243e+000  3.698859e+000  2.200000e+001
    endloop
  endfacet
  facet normal -6.327437e-001 -7.743613e-001  -0.000000e+000
    outer loop
      vertex  4.724243e+000  3.698859e+000  2.200000e+001
      vertex  2.683282e+000  5.366563e+000  2.000000e+001
      vertex  4.724243e+000  3.698859e+000  2.000000e+001
    endloop
  endfacet
  facet normal -8.784312e-001 -4.778689e-001  0.000000e+000
    outer loop
      vertex  4.724243e+000  3.698859e+000  2.200000e+001
      vertex  4.724243e+000  3.698859e+000  2.000000e+001
      vertex  5.671977e+000  1.956711e+000  2.200000e+001
    endloop
  endfacet
  facet normal -8.784312e-001 -4.778689e-001  -0.000000e+000
    outer loop
      vertex  5.671977e+000  1.956711e+000  2.200000e+001
      vertex  4.724243e+000  3.698859e+000  2.000000e+001
      vertex  5.671977e+000  1.956711e+000  2.000000e+001
    endloop
  endfacet
  facet normal -9.862378e-001 -1.653331e-001  0.000000e+000
    outer loop
      vertex  5.671977e+000  1.956711e+000  2.200000e+001
      vertex  5.671977e+000  1.956711e+000  2.000000e+001
      vertex  6.000000e+000  9.278346e-015  2.200000e+001
    endloop
  endfacet
  facet normal -9.862378e-001 -1.653331e-001  2.163390e-016
    outer loop
      vertex  6.000000e+000  9.278346e-015  2.200000e+001
      vertex  5.671977e+000  1.956711e+000  2.000000e+001
      vertex  6.000000e+000  6.661338e-015  2.000000e+001
    endloop
  endfacet
  facet normal  9.792926e-001 -2.024501e-001  1.331666e-016
    outer loop
      vertex -6.000000e+000 -4.608065e-016  2.200000e+001
      vertex -6.000000e+000 -1.776357e-015  2.000000e+001
      vertex -5.507999e+000  2.379908e+000  2.200000e+001
    endloop
  endfacet
  facet normal  9.792926e-001 -2.024501e-001  0.000000e+000
    outer loop
      vertex -5.507999e+000  2.379908e+000  2.200000e+001
      vertex -6.000000e+000 -1.776357e-015  2.000000e+001
      vertex -5.507999e+000  2.379908e+000  2.000000e+001
    endloop
  endfacet
  facet normal  8.190089e-001 -5.737808e-001  0.000000e+000
    outer loop
      vertex -5.507999e+000  2.379908e+000  2.200000e+001
      vertex -5.507999e+000  2.379908e+000  2.000000e+001
      vertex -4.118345e+000  4.363487e+000  2.200000e+001
    endloop
  endfacet
  facet normal  8.190089e-001 -5.737808e-001  0.000000e+000
    outer loop
      vertex -4.118345e+000  4.363487e+000  2.200000e+001
      vertex -5.507999e+000  2.379908e+000  2.000000e+001
      vertex -4.118345e+000  4.363487e+000  2.000000e+001
    endloop
  endfacet
  facet normal  5.257311e-001 -8.506508e-001  0.000000e+000
    outer loop
      vertex -4.118345e+000  4.363487e+000  2.200000e+001
      vertex -4.118345e+000  4.363487e+000  2.000000e+001
      vertex -2.061041e+000  5.634971e+000  2.200000e+001
    endloop
  endfacet
  facet normal  5.257311e-001 -8.506508e-001  0.000000e+000
    outer loop
      vertex -2.061041e+000  5.634971e+000  2.200000e+001
      vertex -4.118345e+000  4.363487e+000  2.000000e+001
      vertex -2.061041e+000  5.634971e+000  2.000000e+001
    endloop
  endfacet
  facet normal  1.469332e-001 -9.891464e-001  0.000000e+000
    outer loop
      vertex -2.061041e+000  5.634971e+000  2.200000e+001
      vertex -2.061041e+000  5.634971e+000  2.000000e+001
      vertex  3.345975e-001  5.990832e+000  2.200000e+001
    endloop
  endfacet
  facet normal  1.469332e-001 -9.891464e-001  0.000000e+000
    outer loop
      vertex  3.345975e-001  5.990832e+000  2.200000e+001
      vertex -2.061041e+000  5.634971e+000  2.000000e+001
      vertex  3.345975e-001  5.990832e+000  2.000000e+001
    endloop
  endfacet
  facet normal -2.568761e-001 -9.664444e-001  0.000000e+000
    outer loop
      vertex  3.345975e-001  5.990832e+000  2.200000e+001
      vertex  3.345975e-001  5.990832e+000  2.000000e+001
      vertex  2.683282e+000  5.366563e+000  2.200000e+001
    endloop
  endfacet
  facet normal -2.568761e-001 -9.664444e-001  -0.000000e+000
    outer loop
      vertex  2.683282e+000  5.366563e+000  2.200000e+001
      vertex  3.345975e-001  5.990832e+000  2.000000e+001
      vertex  2.683282e+000  5.366563e+000  2.000000e+001
    endloop
  endfacet
  facet normal -9.836691e-001  1.799860e-001 -2.355123e-016
    outer loop
      vertex  6.000000e+000  9.278346e-015  2.200000e+001
      vertex  6.000000e+000  6.661338e-015  2.000000e+001
      vertex  5.611259e+000 -2.124571e+000  2.200000e+001
    endloop
  endfacet
  facet normal -9.836705e-001  1.799790e-001 -7.673434e-006
    outer loop
      vertex  5.611259e+000 -2.124571e+000  2.200000e+001
      vertex  6.000000e+000  6.661338e-015  2.000000e+001
      vertex  5.611289e+000 -2.124492e+000  2.000000e+001
    endloop
  endfacet
  facet normal -8.696167e-001  4.937275e-001  6.419671e-006
    outer loop
      vertex  5.611259e+000 -2.124571e+000  2.200000e+001
      vertex  5.611289e+000 -2.124492e+000  2.000000e+001
      vertex  4.699965e+000 -3.729658e+000  2.200000e+001
    endloop
  endfacet
  facet normal -8.696265e-001  4.937101e-001 -1.204498e-005
    outer loop
      vertex  4.699965e+000 -3.729658e+000  2.200000e+001
      vertex  5.611289e+000 -2.124492e+000  2.000000e+001
      vertex  4.700063e+000 -3.729536e+000  2.000000e+001
    endloop
  endfacet
  facet normal -6.532067e-001  7.571797e-001  1.462484e-005
    outer loop
      vertex  4.699965e+000 -3.729658e+000  2.200000e+001
      vertex  4.700063e+000 -3.729536e+000  2.000000e+001
      vertex  3.000138e+000 -5.196072e+000  2.200000e+001
    endloop
  endfacet
  facet normal -6.532066e-001  7.571797e-001  1.467956e-005
    outer loop
      vertex  3.000138e+000 -5.196072e+000  2.200000e+001
      vertex  4.700063e+000 -3.729536e+000  2.000000e+001
      vertex  3.000000e+000 -5.196152e+000  2.000000e+001
    endloop
  endfacet
  facet normal -3.920436e-001  9.199467e-001 -9.834869e-006
    outer loop
      vertex  3.000138e+000 -5.196072e+000  2.200000e+001
      vertex  3.000000e+000 -5.196152e+000  2.000000e+001
      vertex  1.669442e+000 -5.763160e+000  2.200000e+001
    endloop
  endfacet
  facet normal -3.919978e-001  9.199662e-001  2.614467e-005
    outer loop
      vertex  1.669442e+000 -5.763160e+000  2.200000e+001
      vertex  3.000000e+000 -5.196152e+000  2.000000e+001
      vertex  1.669025e+000 -5.763281e+000  2.000000e+001
    endloop
  endfacet
  facet normal -1.268911e-001  9.919167e-001 -3.340615e-005
    outer loop
      vertex  1.669442e+000 -5.763160e+000  2.200000e+001
      vertex  1.669025e+000 -5.763281e+000  2.000000e+001
      vertex -1.658783e-001 -5.997944e+000  2.200000e+001
    endloop
  endfacet
  facet normal -1.268255e-001  9.919251e-001  2.779855e-005
    outer loop
      vertex -1.658783e-001 -5.997944e+000  2.200000e+001
      vertex  1.669025e+000 -5.763281e+000  2.000000e+001
      vertex -1.662384e-001 -5.997934e+000  2.000000e+001
    endloop
  endfacet
  facet normal  1.811258e-001  9.834599e-001 -2.768381e-005
    outer loop
      vertex -1.658783e-001 -5.997944e+000  2.200000e+001
      vertex -1.662384e-001 -5.997934e+000  2.000000e+001
      vertex -1.980749e+000 -5.663695e+000  2.200000e+001
    endloop
  endfacet
  facet normal  1.811789e-001  9.834502e-001  2.208133e-005
    outer loop
      vertex -1.980749e+000 -5.663695e+000  2.200000e+001
      vertex -1.662384e-001 -5.997934e+000  2.000000e+001
      vertex -1.981021e+000 -5.663600e+000  2.000000e+001
    endloop
  endfacet
  facet normal  4.712916e-001  8.819775e-001 -2.208981e-005
    outer loop
      vertex -1.980749e+000 -5.663695e+000  2.200000e+001
      vertex -1.981021e+000 -5.663600e+000  2.000000e+001
      vertex -3.607388e+000 -4.794488e+000  2.200000e+001
    endloop
  endfacet
  facet normal  4.713284e-001  8.819577e-001  1.641774e-005
    outer loop
      vertex -3.607388e+000 -4.794488e+000  2.200000e+001
      vertex -1.981021e+000 -5.663600e+000  2.000000e+001
      vertex -3.607560e+000 -4.794359e+000  2.000000e+001
    endloop
  endfacet
  facet normal  7.168961e-001  6.971799e-001 -1.665682e-005
    outer loop
      vertex -3.607388e+000 -4.794488e+000  2.200000e+001
      vertex -3.607560e+000 -4.794359e+000  2.000000e+001
      vertex -4.894065e+000 -3.471424e+000  2.200000e+001
    endloop
  endfacet
  facet normal  7.169172e-001  6.971585e-001  1.106472e-005
    outer loop
      vertex -4.894065e+000 -3.471424e+000  2.200000e+001
      vertex -3.607560e+000 -4.794359e+000  2.000000e+001
      vertex -4.894148e+000 -3.471307e+000  2.000000e+001
    endloop
  endfacet
  facet normal  8.947617e-001  4.465440e-001 -1.098203e-005
    outer loop
      vertex -4.894065e+000 -3.471424e+000  2.200000e+001
      vertex -4.894148e+000 -3.471307e+000  2.000000e+001
      vertex -5.716075e+000 -1.824322e+000  2.200000e+001
    endloop
  endfacet
  facet normal  8.947697e-001  4.465280e-001  5.490539e-006
    outer loop
      vertex -5.716075e+000 -1.824322e+000  2.200000e+001
      vertex -4.894148e+000 -3.471307e+000  2.000000e+001
      vertex -5.716097e+000 -1.824253e+000  2.000000e+001
    endloop
  endfacet
  facet normal  9.881049e-001  1.537817e-001 -5.566289e-006
    outer loop
      vertex -5.716075e+000 -1.824322e+000  2.200000e+001
      vertex -5.716097e+000 -1.824253e+000  2.000000e+001
      vertex -6.000000e+000 -4.608065e-016  2.200000e+001
    endloop
  endfacet
  facet normal  9.881058e-001  1.537757e-001 -1.011498e-016
    outer loop
      vertex -6.000000e+000 -4.608065e-016  2.200000e+001
      vertex -5.716097e+000 -1.824253e+000  2.000000e+001
      vertex -6.000000e+000 -1.776357e-015  2.000000e+001
    endloop
  endfacet
  facet normal  0.000000e+000  0.000000e+000  1.000000e+000
    outer loop
      vertex  5.611259e+000 -2.124571e+000  2.200000e+001
      vertex  1.080961e+001 -2.292345e+000  2.200000e+001
      vertex  6.000000e+000  9.278346e-015  2.200000e+001
    endloop
  endfacet
  facet normal  0.000000e+000  0.000000e+000  9.999999e-001
    outer loop
      vertex  1.080961e+001 -2.292345e+000  2.200000e+001
      vertex  1.105000e+001 -8.881784e-016  2.200000e+001
      vertex  6.000000e+000  9.278346e-015  2.200000e+001
    endloop
  endfacet
  facet normal  0.000000e+000  -0.000000e+000  1.000000e+000
    outer loop
      vertex  5.611259e+000 -2.124571e+000  2.200000e+001
      vertex  1.009916e+001 -4.484378e+000  2.200000e+001
      vertex  1.080961e+001 -2.292345e+000  2.200000e+001
    endloop
  endfacet
  facet normal  0.000000e+000  0.000000e+000  9.999999e-001
    outer loop
      vertex  3.000138e+000 -5.196072e+000  2.200000e+001
      vertex  7.110063e+000 -8.458696e+000  2.200000e+001
      vertex  4.699965e+000 -3.729658e+000  2.200000e+001
    endloop
  endfacet
  facet normal  0.000000e+000  0.000000e+000  1.000000e+000
    outer loop
      vertex  5.524949e+000 -9.569605e+000  2.200000e+001
      vertex  7.110063e+000 -8.458696e+000  2.200000e+001
      vertex  3.000138e+000 -5.196072e+000  2.200000e+001
    endloop
  endfacet
  facet normal  0.000000e+000  0.000000e+000  1.000000e+000
    outer loop
      vertex -1.980749e+000 -5.663695e+000  2.200000e+001
      vertex -2.299051e+000 -1.080848e+001  2.200000e+001
      vertex -1.658783e-001 -5.997944e+000  2.200000e+001
    endloop
  endfacet
  facet normal  -0.000000e+000  0.000000e+000  1.000000e+000
    outer loop
      vertex -1.980749e+000 -5.663695e+000  2.200000e+001
      vertex -4.673542e+000 -1.001305e+001  2.200000e+001
      vertex -2.299051e+000 -1.080848e+001  2.200000e+001
    endloop
  endfacet
  facet normal  0.000000e+000  0.000000e+000  1.000000e+000
    outer loop
      vertex -5.716075e+000 -1.824322e+000  2.200000e+001
      vertex -9.932871e+000 -4.842494e+000  2.200000e+001
      vertex -4.894065e+000 -3.471424e+000  2.200000e+001
    endloop
  endfacet
  facet normal  0.000000e+000  0.000000e+000  9.999999e-001
    outer loop
      vertex  7.110063e+000 -8.458696e+000  2.200000e+001
      vertex  8.831212e+000 -6.641707e+000  2.200000e+001
      vertex  4.699965e+000 -3.729658e+000  2.200000e+001
    endloop
  endfacet
  facet normal  0.000000e+000  0.000000e+000  1.000000e+000
    outer loop
      vertex  4.699965e+000 -3.729658e+000  2.200000e+001
      vertex  8.831212e+000 -6.641707e+000  2.200000e+001
      vertex  1.009916e+001 -4.484378e+000  2.200000e+001
    endloop
  endfacet
  facet normal  0.000000e+000  0.000000e+000  1.000000e+000
    outer loop
      vertex  4.699965e+000 -3.729658e+000  2.200000e+001
      vertex  1.009916e+001 -4.484378e+000  2.200000e+001
      vertex  5.611259e+000 -2.124571e+000  2.200000e+001
    endloop
  endfacet
  facet normal  0.000000e+000  0.000000e+000  9.999999e-001
    outer loop
      vertex -2.299051e+000 -1.080848e+001  2.200000e+001
      vertex  1.914161e-001 -1.104878e+001  2.200000e+001
      vertex -1.658783e-001 -5.997944e+000  2.200000e+001
    endloop
  endfacet
  facet normal  0.000000e+000  0.000000e+000  1.000000e+000
    outer loop
      vertex -1.658783e-001 -5.997944e+000  2.200000e+001
      vertex  1.914161e-001 -1.104878e+001  2.200000e+001
      vertex  2.677238e+000 -1.072099e+001  2.200000e+001
    endloop
  endfacet
  facet normal  0.000000e+000  0.000000e+000  1.000000e+000
    outer loop
      vertex -1.658783e-001 -5.997944e+000  2.200000e+001
      vertex  2.677238e+000 -1.072099e+001  2.200000e+001
      vertex  1.669442e+000 -5.763160e+000  2.200000e+001
    endloop
  endfacet
  facet normal  0.000000e+000  0.000000e+000  1.000000e+000
    outer loop
      vertex  1.669442e+000 -5.763160e+000  2.200000e+001
      vertex  2.677238e+000 -1.072099e+001  2.200000e+001
      vertex  5.524949e+000 -9.569605e+000  2.200000e+001
    endloop
  endfacet
  facet normal  0.000000e+000  0.000000e+000  1.000000e+000
    outer loop
      vertex  1.669442e+000 -5.763160e+000  2.200000e+001
      vertex  5.524949e+000 -9.569605e+000  2.200000e+001
      vertex  3.000138e+000 -5.196072e+000  2.200000e+001
    endloop
  endfacet
  facet normal  0.000000e+000  -0.000000e+000  1.000000e+000
    outer loop
      vertex -9.932871e+000 -4.842494e+000  2.200000e+001
      vertex -8.588869e+000 -6.952809e+000  2.200000e+001
      vertex -4.894065e+000 -3.471424e+000  2.200000e+001
    endloop
  endfacet
  facet normal  0.000000e+000  0.000000e+000  1.000000e+000
    outer loop
      vertex -4.894065e+000 -3.471424e+000  2.200000e+001
      vertex -8.588869e+000 -6.952809e+000  2.200000e+001
      vertex -6.807416e+000 -8.704206e+000  2.200000e+001
    endloop
  endfacet
  facet normal  0.000000e+000  0.000000e+000  1.000000e+000
    outer loop
      vertex -4.894065e+000 -3.471424e+000  2.200000e+001
      vertex -6.807416e+000 -8.704206e+000  2.200000e+001
      vertex -3.607388e+000 -4.794488e+000  2.200000e+001
    endloop
  endfacet
  facet normal  0.000000e+000  0.000000e+000  1.000000e+000
    outer loop
      vertex -3.607388e+000 -4.794488e+000  2.200000e+001
      vertex -6.807416e+000 -8.704206e+000  2.200000e+001
      vertex -4.673542e+000 -1.001305e+001  2.200000e+001
    endloop
  endfacet
  facet normal  0.000000e+000  0.000000e+000  9.999999e-001
    outer loop
      vertex -3.607388e+000 -4.794488e+000  2.200000e+001
      vertex -4.673542e+000 -1.001305e+001  2.200000e+001
      vertex -1.980749e+000 -5.663695e+000  2.200000e+001
    endloop
  endfacet
  facet normal  0.000000e+000  0.000000e+000  1.000000e+000
    outer loop
      vertex -9.932871e+000 -4.842494e+000  2.200000e+001
      vertex -5.716075e+000 -1.824322e+000  2.200000e+001
      vertex -1.076655e+001 -2.487368e+000  2.200000e+001
    endloop
  endfacet
  facet normal  0.000000e+000  0.000000e+000  1.000000e+000
    outer loop
      vertex -1.076655e+001 -2.487368e+000  2.200000e+001
      vertex -5.716075e+000 -1.824322e+000  2.200000e+001
      vertex -6.000000e+000 -4.608065e-016  2.200000e+001
    endloop
  endfacet
  facet normal  0.000000e+000  0.000000e+000  1.000000e+000
    outer loop
      vertex -1.076655e+001 -2.487368e+000  2.200000e+001
      vertex -6.000000e+000 -4.608065e-016  2.200000e+001
      vertex -1.105000e+001 -3.286260e-014  2.200000e+001
    endloop
  endfacet
  facet normal  0.000000e+000  0.000000e+000  9.999999e-001
    outer loop
      vertex  4.941710e+000  9.883420e+000  2.200000e+001
      vertex  2.835966e+000  1.067998e+001  2.200000e+001
      vertex  2.683282e+000  5.366563e+000  2.200000e+001
    endloop
  endfacet
  facet normal  -0.000000e+000  0.000000e+000  1.000000e+000
    outer loop
      vertex  2.835966e+000  1.067998e+001  2.200000e+001
      vertex  3.345975e-001  5.990832e+000  2.200000e+001
      vertex  2.683282e+000  5.366563e+000  2.200000e+001
    endloop
  endfacet
  facet normal  -0.000000e+000  0.000000e+000  1.000000e+000
    outer loop
      vertex -5.507999e+000  2.379908e+000  2.200000e+001
      vertex -1.082074e+001  2.239666e+000  2.200000e+001
      vertex -6.000000e+000 -4.608065e-016  2.200000e+001
    endloop
  endfacet
  facet normal  0.000000e+000  0.000000e+000  9.999999e-001
    outer loop
      vertex -1.082074e+001  2.239666e+000  2.200000e+001
      vertex -1.105000e+001 -3.286260e-014  2.200000e+001
      vertex -6.000000e+000 -4.608065e-016  2.200000e+001
    endloop
  endfacet
  facet normal  0.000000e+000  0.000000e+000  1.000000e+000
    outer loop
      vertex -1.014390e+001  4.382998e+000  2.200000e+001
      vertex -1.082074e+001  2.239666e+000  2.200000e+001
      vertex -5.507999e+000  2.379908e+000  2.200000e+001
    endloop
  endfacet
  facet normal  -0.000000e+000  0.000000e+000  1.000000e+000
    outer loop
      vertex -9.049654e+000  6.341394e+000  2.200000e+001
      vertex -1.014390e+001  4.382998e+000  2.200000e+001
      vertex -5.507999e+000  2.379908e+000  2.200000e+001
    endloop
  endfacet
  facet normal  0.000000e+000  0.000000e+000  1.000000e+000
    outer loop
      vertex -4.118345e+000  4.363487e+000  2.200000e+001
      vertex -9.049654e+000  6.341394e+000  2.200000e+001
      vertex -5.507999e+000  2.379908e+000  2.200000e+001
    endloop
  endfacet
  facet normal  -0.000000e+000  0.000000e+000  1.000000e+000
    outer loop
      vertex -7.584619e+000  8.036088e+000  2.200000e+001
      vertex -9.049654e+000  6.341394e+000  2.200000e+001
      vertex -4.118345e+000  4.363487e+000  2.200000e+001
    endloop
  endfacet
  facet normal  -0.000000e+000  0.000000e+000  1.000000e+000
    outer loop
      vertex -5.809329e+000  9.399693e+000  2.200000e+001
      vertex -7.584619e+000  8.036088e+000  2.200000e+001
      vertex -4.118345e+000  4.363487e+000  2.200000e+001
    endloop
  endfacet
  facet normal  0.000000e+000  0.000000e+000  1.000000e+000
    outer loop
      vertex -2.061041e+000  5.634971e+000  2.200000e+001
      vertex -5.809329e+000  9.399693e+000  2.200000e+001
      vertex -4.118345e+000  4.363487e+000  2.200000e+001
    endloop
  endfacet
  facet normal  -0.000000e+000  0.000000e+000  1.000000e+000
    outer loop
      vertex -3.795751e+000  1.037774e+001  2.200000e+001
      vertex -5.809329e+000  9.399693e+000  2.200000e+001
      vertex -2.061041e+000  5.634971e+000  2.200000e+001
    endloop
  endfacet
  facet normal  -0.000000e+000  0.000000e+000  1.000000e+000
    outer loop
      vertex -1.624787e+000  1.093021e+001  2.200000e+001
      vertex -3.795751e+000  1.037774e+001  2.200000e+001
      vertex -2.061041e+000  5.634971e+000  2.200000e+001
    endloop
  endfacet
  facet normal  0.000000e+000  0.000000e+000  1.000000e+000
    outer loop
      vertex  3.345975e-001  5.990832e+000  2.200000e+001
      vertex -1.624787e+000  1.093021e+001  2.200000e+001
      vertex -2.061041e+000  5.634971e+000  2.200000e+001
    endloop
  endfacet
  facet normal  -0.000000e+000  0.000000e+000  1.000000e+000
    outer loop
      vertex  6.162171e-001  1.103312e+001  2.200000e+001
      vertex -1.624787e+000  1.093021e+001  2.200000e+001
      vertex  3.345975e-001  5.990832e+000  2.200000e+001
    endloop
  endfacet
  facet normal  0.000000e+000  0.000000e+000  1.000000e+000
    outer loop
      vertex  2.835966e+000  1.067998e+001  2.200000e+001
      vertex  6.162171e-001  1.103312e+001  2.200000e+001
      vertex  3.345975e-001  5.990832e+000  2.200000e+001
    endloop
  endfacet
  facet normal  0.000000e+000  0.000000e+000  1.000000e+000
    outer loop
      vertex  1.105000e+001 -8.881784e-016  2.200000e+001
      vertex  1.089789e+001  1.827175e+000  2.200000e+001
      vertex  6.000000e+000  9.278346e-015  2.200000e+001
    endloop
  endfacet
  facet normal  0.000000e+000  0.000000e+000  9.999999e-001
    outer loop
      vertex  1.089789e+001  1.827175e+000  2.200000e+001
      vertex  5.671977e+000  1.956711e+000  2.200000e+001
      vertex  6.000000e+000  9.278346e-015  2.200000e+001
    endloop
  endfacet
  facet normal  0.000000e+000  0.000000e+000  1.000000e+000
    outer loop
      vertex  4.724243e+000  3.698859e+000  2.200000e+001
      vertex  7.454869e+000  8.156441e+000  2.200000e+001
      vertex  2.683282e+000  5.366563e+000  2.200000e+001
    endloop
  endfacet
  facet normal  0.000000e+000  0.000000e+000  1.000000e+000
    outer loop
      vertex  7.454869e+000  8.156441e+000  2.200000e+001
      vertex  4.941710e+000  9.883420e+000  2.200000e+001
      vertex  2.683282e+000  5.366563e+000  2.200000e+001
    endloop
  endfacet
  facet normal  0.000000e+000  0.000000e+000  1.000000e+000
    outer loop
      vertex  8.700480e+000  6.812066e+000  2.200000e+001
      vertex  7.454869e+000  8.156441e+000  2.200000e+001
      vertex  4.724243e+000  3.698859e+000  2.200000e+001
    endloop
  endfacet
  facet normal  0.000000e+000  0.000000e+000  1.000000e+000
    outer loop
      vertex  9.706640e+000  5.280506e+000  2.200000e+001
      vertex  8.700480e+000  6.812066e+000  2.200000e+001
      vertex  4.724243e+000  3.698859e+000  2.200000e+001
    endloop
  endfacet
  facet normal  0.000000e+000  0.000000e+000  1.000000e+000
    outer loop
      vertex  5.671977e+000  1.956711e+000  2.200000e+001
      vertex  9.706640e+000  5.280506e+000  2.200000e+001
      vertex  4.724243e+000  3.698859e+000  2.200000e+001
    endloop
  endfacet
  facet normal  0.000000e+000  0.000000e+000  1.000000e+000
    outer loop
      vertex  1.044589e+001  3.603609e+000  2.200000e+001
      vertex  9.706640e+000  5.280506e+000  2.200000e+001
      vertex  5.671977e+000  1.956711e+000  2.200000e+001
    endloop
  endfacet
  facet normal  0.000000e+000  0.000000e+000  1.000000e+000
    outer loop
      vertex  1.089789e+001  1.827175e+000  2.200000e+001
      vertex  1.044589e+001  3.603609e+000  2.200000e+001
      vertex  5.671977e+000  1.956711e+000  2.200000e+001
    endloop
  endfacet
endsolid CATIA STL
